<svg width="77" height="17" viewBox="0 0 77 17" fill="none" xmlns="http://www.w3.org/2000/svg">
<g clip-path="url(#clip0)">
<path d="M22.8891 6.28248C23.755 5.61926 24.6945 5.41661 25.7017 5.67452C27.1018 6.03684 27.894 7.0071 28.1949 8.38267C28.5388 9.9486 27.9001 11.5391 26.6474 12.3313C24.3813 13.756 21.4521 12.319 21.2187 9.65384C21.1266 8.64059 21.188 7.62734 21.1819 6.62023C21.1696 5.55785 21.1819 4.48933 21.1757 3.42695C21.1757 3.21816 21.2187 3.12604 21.446 3.15061C21.6363 3.16903 21.8328 3.15675 22.0293 3.16903C22.582 3.21202 22.8829 3.53134 22.8952 4.08403C22.8952 4.80251 22.8891 5.51486 22.8891 6.28248ZM22.8154 9.20555C22.84 9.3775 22.8522 9.54944 22.8829 9.72139C23.0365 10.5197 23.626 11.1645 24.3015 11.2873C25.0507 11.4224 25.8368 11.0724 26.2298 10.3846C26.6719 9.60471 26.6658 8.80025 26.2052 8.0265C25.8061 7.35714 25.0569 7.03781 24.3138 7.16677C23.5892 7.29573 23.061 7.82385 22.8952 8.5976C22.8584 8.79411 22.8461 9.0029 22.8154 9.20555Z" fill="#C4214C"/>
<path d="M45.9233 6.26408C46.3409 5.95703 46.7769 5.72368 47.2804 5.63157C48.9017 5.33066 50.4001 6.15354 51.008 7.68877C51.4195 8.73273 51.4195 9.78897 50.965 10.8206C50.3141 12.3067 48.8341 13.0621 47.1269 12.8042C45.5426 12.5647 44.4372 11.3856 44.2529 9.73984C44.2284 9.52491 44.2161 9.30998 44.2161 9.09504C44.2161 7.21592 44.2222 5.33066 44.21 3.45154C44.21 3.2059 44.2775 3.15063 44.517 3.15063C45.7145 3.15678 45.9294 3.36557 45.9294 4.56919C45.9233 5.12187 45.9233 5.68069 45.9233 6.26408ZM49.5772 9.14417C49.5649 8.70202 49.4359 8.21075 49.0798 7.81159C48.5946 7.25891 47.9928 7.01941 47.262 7.18522C46.5558 7.34488 46.1321 7.80545 45.9479 8.49937C45.8373 8.91082 45.8189 9.32226 45.9049 9.74598C46.083 10.575 46.6909 11.2075 47.4033 11.3058C48.5762 11.4532 49.5772 10.4952 49.5772 9.14417Z" fill="#C4214C"/>
<path d="M28.895 9.21158C28.895 7.13597 30.4978 5.57005 32.6288 5.57619C34.7597 5.57619 36.3748 7.14211 36.3748 9.21158C36.3748 11.2504 34.7167 12.8654 32.6288 12.8654C30.504 12.8593 28.9012 11.2872 28.895 9.21158ZM34.6246 9.21773C34.6307 8.01412 33.771 7.11755 32.6226 7.11755C31.4927 7.11755 30.6329 8.02026 30.6329 9.20544C30.6329 10.3968 31.4804 11.2995 32.6042 11.3056C33.7648 11.3056 34.6184 10.4275 34.6246 9.21773Z" fill="#C4214C"/>
<path d="M56.1911 9.51256C55.4665 9.51256 54.7358 9.51871 54.0112 9.50642C53.8024 9.50642 53.7533 9.54941 53.8024 9.76434C54.0173 10.6486 54.9569 11.2934 55.9885 11.2382C56.4368 11.2136 56.8421 11.0416 57.2412 10.8636C57.886 10.5749 58.2422 10.7039 58.586 11.3118C58.6904 11.5022 58.6597 11.6066 58.5123 11.754C56.9772 13.2032 54.3059 13.0988 52.8936 11.5268C51.5733 10.0591 51.7146 7.5659 53.1883 6.30088C54.2507 5.39202 55.9824 5.21394 57.1859 5.914C58.3465 6.5895 58.7457 7.6703 58.715 8.95374C58.7027 9.51871 58.6781 9.51871 58.1255 9.51871C57.4746 9.51256 56.8298 9.51256 56.1911 9.51256ZM55.4236 8.21069C55.6078 8.21069 55.792 8.21069 55.9762 8.21069C56.1727 8.21069 56.3631 8.21069 56.5596 8.21069C57.143 8.21069 57.2228 8.06331 56.9219 7.5352C56.8666 7.43694 56.7991 7.34483 56.7192 7.265C55.9025 6.42984 54.1586 6.87812 53.827 8.0019C53.784 8.15543 53.7901 8.22298 53.9805 8.21684C54.4595 8.20455 54.9384 8.21069 55.4236 8.21069Z" fill="#C4214C"/>
<path d="M73.3674 10.176C73.7174 8.86181 74.2517 7.62749 74.7 6.36246C74.9395 5.6931 75.1974 5.51501 75.9037 5.49659C76.2476 5.49045 76.5915 5.49659 76.9722 5.49659C76.8863 5.71766 76.8249 5.89575 76.745 6.06769C75.7317 8.37054 74.8351 10.7164 73.8832 13.0438C73.5271 13.9219 72.9621 14.5606 71.9918 14.7509C71.4636 14.8553 70.9539 14.7632 70.4626 14.5667C70.3214 14.5115 70.3091 14.45 70.3705 14.3149C70.6161 13.7377 70.9539 13.3078 71.654 13.2464C72.1699 13.2034 72.5752 12.3683 72.3725 11.8954C71.4943 9.85664 70.6223 7.82399 69.738 5.79135C69.6336 5.558 69.6458 5.47202 69.9283 5.49045C70.2354 5.51501 70.5424 5.50273 70.8495 5.50273C71.304 5.50273 71.611 5.7238 71.7768 6.13524C72.2927 7.45554 72.9252 8.73285 73.3121 10.1023C73.3121 10.1268 73.3428 10.1453 73.3674 10.176Z" fill="#C4214C"/>
<path d="M36.2886 12.6201C36.4728 12.3622 36.6079 12.1473 36.7614 11.9508C37.4492 11.0665 37.9896 10.0901 38.5853 9.15052C38.6835 8.99085 38.6283 8.89874 38.5484 8.76978C37.8177 7.69512 37.1053 6.61432 36.3009 5.50895C36.9702 5.52738 37.5966 5.42298 38.2107 5.58264C38.5362 5.66862 38.7327 5.93268 38.9046 6.20288C39.2239 6.71257 39.5555 7.21613 39.838 7.8118C40.0898 7.2714 40.4091 6.81083 40.6732 6.3257C40.9987 5.73003 41.4592 5.4414 42.147 5.49667C42.5339 5.52738 42.9208 5.50281 43.3076 5.50281C43.3261 5.63791 43.234 5.70546 43.1787 5.77915C42.4663 6.75556 41.797 7.75653 41.1215 8.7575C41.0171 8.91716 41.0048 9.02156 41.1153 9.18736C41.8215 10.2804 42.4848 11.392 43.2647 12.4359C43.2954 12.4728 43.3138 12.5219 43.3752 12.6201C42.7181 12.5894 42.0979 12.6938 41.4899 12.5342C41.1399 12.4421 40.9373 12.1596 40.7592 11.8709C40.446 11.3735 40.1205 10.8823 39.8503 10.2989C39.5862 10.8638 39.2608 11.3305 38.9844 11.828C38.6713 12.3929 38.2168 12.6447 37.5782 12.6201C37.1667 12.6079 36.7676 12.6201 36.2886 12.6201Z" fill="#C4214C"/>
<path d="M61.6933 6.69371C61.9758 6.11033 62.3749 5.74801 62.903 5.53308C63.0136 5.49009 63.1364 5.45939 63.2592 5.44097C63.9654 5.32429 64.0698 5.41026 64.0698 6.09804C64.0698 6.40509 64.0698 6.71214 64.0698 7.01918C64.0698 7.12972 64.0514 7.17885 63.9163 7.1727C62.6083 7.08059 61.8468 7.72539 61.7424 9.04568C61.6626 10.0651 61.7179 11.0906 61.7179 12.11C61.7179 12.3863 61.6564 12.4846 61.3678 12.4662C60.9932 12.4416 60.6125 12.4478 60.2318 12.4662C60.0537 12.4723 59.98 12.4293 59.98 12.2328C59.9861 10.0651 59.9861 7.89733 59.98 5.73573C59.98 5.53922 60.0475 5.48395 60.2318 5.50237C60.3116 5.51466 60.3976 5.50237 60.4774 5.50237C61.3801 5.50237 61.6257 5.72959 61.6933 6.69371Z" fill="#C4214C"/>
<path d="M66.6062 6.64488C66.7351 6.59575 66.7351 6.49136 66.7781 6.41767C67.2018 5.71146 68.037 5.31844 68.8107 5.4474C68.952 5.47196 69.0011 5.51495 69.0011 5.65619C68.995 6.10448 68.995 6.55891 69.0011 7.00719C69.0011 7.16686 68.9458 7.2037 68.8046 7.16072C67.9633 6.91508 67.0974 7.45548 66.7842 8.49944C66.6798 8.85561 66.6491 9.21792 66.6491 9.59252C66.6491 10.4645 66.643 11.3304 66.6553 12.2024C66.6614 12.4235 66.5877 12.4788 66.3789 12.4726C65.9675 12.4542 65.5622 12.4603 65.1508 12.4726C64.9727 12.4788 64.9297 12.4173 64.9297 12.2454C64.9358 10.0777 64.9358 7.90991 64.9297 5.74216C64.9297 5.5518 64.9911 5.49039 65.1753 5.50267C65.378 5.52109 65.5868 5.50267 65.7894 5.52109C66.3114 5.57022 66.5939 5.88955 66.6062 6.41152C66.6123 6.47907 66.6062 6.55277 66.6062 6.64488Z" fill="#C4214C"/>
<path d="M8.00356 5.11573C8.00356 6.16582 7.13769 7.03169 6.08759 7.03169C5.0375 7.03169 4.17163 6.15968 4.17777 5.10959C4.18391 4.06563 5.03135 3.22432 6.07531 3.21204C7.13155 3.19976 8.00356 4.06563 8.00356 5.11573Z" fill="#C4214C"/>
<path d="M6.08741 9.62329C7.14365 9.62329 8.00337 10.483 8.00337 11.5331C7.99723 12.5894 7.1375 13.4368 6.08127 13.4368C5.03731 13.4307 4.18986 12.5894 4.18372 11.5454C4.17144 10.4892 5.03117 9.62329 6.08741 9.62329Z" fill="#C4214C"/>
<path d="M14.4083 5.13405C14.4021 6.18415 13.5301 7.04388 12.48 7.0316C11.436 7.01932 10.5947 6.16573 10.5947 5.12177C10.5947 4.05939 11.4483 3.20581 12.5046 3.21195C13.5608 3.21195 14.4144 4.07168 14.4083 5.13405Z" fill="#C4214C"/>
<path d="M11.2086 1.92854C11.2024 2.9725 10.3304 3.83222 9.28032 3.82608C8.23636 3.81994 7.38891 2.96021 7.39505 1.89783C7.40119 0.841596 8.26706 -0.0181321 9.31102 0.00029066C10.3611 0.0125725 11.2147 0.878442 11.2086 1.92854Z" fill="#B7C93B"/>
<path d="M7.39502 8.3278C7.39502 7.25927 8.23634 6.41796 9.29873 6.42411C10.3488 6.42411 11.1963 7.26542 11.2024 8.30938C11.2086 9.35948 10.355 10.2315 9.30487 10.2376C8.24862 10.2376 7.39502 9.39018 7.39502 8.3278Z" fill="#C4214C"/>
<path d="M4.79167 8.35821C4.76097 9.43288 3.87667 10.268 2.80815 10.2312C1.78261 10.1944 0.941301 9.29778 0.972006 8.27224C1.00885 7.20371 1.89315 6.38696 2.97395 6.42381C3.99335 6.45451 4.82238 7.33881 4.79167 8.35821Z" fill="#C4214C"/>
<path d="M17.6076 8.33344C17.6015 9.38967 16.7417 10.2433 15.6855 10.231C14.6354 10.2248 13.7818 9.34669 13.7941 8.29659C13.8064 7.25878 14.6599 6.41748 15.7039 6.41748C16.7724 6.42362 17.6137 7.27106 17.6076 8.33344Z" fill="#C4214C"/>
<path d="M10.5947 11.5331C10.5947 10.4707 11.4422 9.62329 12.5045 9.62329C13.5546 9.62329 14.4021 10.4646 14.4082 11.5086C14.4144 12.5709 13.5731 13.4307 12.5168 13.4368C11.4483 13.4368 10.6009 12.5955 10.5947 11.5331Z" fill="#C4214C"/>
<path d="M9.29874 16.6366C8.23636 16.6366 7.38891 15.7953 7.39505 14.7267C7.39505 13.6643 8.24864 12.8169 9.31102 12.823C10.3488 12.8292 11.2024 13.6828 11.2086 14.7206C11.2086 15.7768 10.355 16.6304 9.29874 16.6366Z" fill="#C4214C"/>
</g>
<defs>
<clipPath id="clip0">
<rect width="76" height="16.6357" fill="white" transform="translate(0.972168)"/>
</clipPath>
</defs>
</svg>
