<svg width="150" height="20" viewBox="0 0 150 20" fill="none" xmlns="http://www.w3.org/2000/svg">
<path d="M8.404 15.264C6.18933 15.264 4.356 14.5527 2.904 13.13C1.46667 11.6927 0.748 9.874 0.748 7.674C0.748 5.474 1.46667 3.66267 2.904 2.24C4.356 0.802666 6.18933 0.0839993 8.404 0.0839993C10.6333 0.0839993 12.4667 0.795333 13.904 2.218C15.356 3.64067 16.082 5.45933 16.082 7.674C16.082 9.88867 15.356 11.7073 13.904 13.13C12.4667 14.5527 10.6333 15.264 8.404 15.264ZM5.17 11.128C5.99133 12.0373 7.06933 12.492 8.404 12.492C9.73867 12.492 10.8167 12.0373 11.638 11.128C12.4593 10.2187 12.87 9.06733 12.87 7.674C12.87 6.28067 12.4593 5.12933 11.638 4.22C10.8167 3.31067 9.73867 2.856 8.404 2.856C7.06933 2.856 5.99133 3.31067 5.17 4.22C4.36333 5.12933 3.96 6.28067 3.96 7.674C3.96 9.06733 4.36333 10.2187 5.17 11.128ZM28.1743 15H25.3803V8.576C25.3803 7.256 24.7276 6.596 23.4223 6.596C22.4103 6.596 21.6036 7.014 21.0023 7.85V15H18.2083V4.374H21.0023V5.76C21.9263 4.66 23.1656 4.11 24.7203 4.11C25.8643 4.11 26.7223 4.41067 27.2943 5.012C27.8809 5.61333 28.1743 6.442 28.1743 7.498V15ZM33.7425 15H30.9485V0.325999H33.7425V15ZM36.139 19.158L36.557 16.65C36.821 16.7673 37.1143 16.826 37.437 16.826C38.185 16.826 38.6763 16.5693 38.911 16.056L39.307 15.154L34.995 4.374H37.987L40.759 11.766L43.531 4.374H46.545L41.551 16.738C41.1843 17.6767 40.671 18.3293 40.011 18.696C39.351 19.0773 38.5223 19.2827 37.525 19.312C37.0116 19.312 36.5496 19.2607 36.139 19.158ZM60.0212 15H56.8752V3.076H52.5852V0.325999H64.2892V3.076H60.0212V15ZM76.2138 15H73.4198V8.532C73.4198 7.828 73.2512 7.32933 72.9138 7.036C72.5765 6.74267 72.0852 6.596 71.4398 6.596C70.4572 6.596 69.6505 7.014 69.0198 7.85V15H66.2258V0.325999H69.0198V5.76C69.4012 5.30533 69.9145 4.91667 70.5598 4.594C71.2198 4.27133 71.9532 4.11 72.7598 4.11C73.9038 4.11 74.7618 4.40333 75.3338 4.99C75.9205 5.57667 76.2138 6.398 76.2138 7.454V15ZM83.9816 15.264C82.3389 15.264 80.9822 14.7507 79.9116 13.724C78.8409 12.6973 78.3056 11.348 78.3056 9.676C78.3056 8.10667 78.8189 6.78667 79.8456 5.716C80.8869 4.64533 82.2069 4.11 83.8056 4.11C85.3896 4.11 86.6729 4.65267 87.6556 5.738C88.6382 6.80867 89.1296 8.21667 89.1296 9.962V10.578H81.2316C81.3196 11.282 81.6349 11.8687 82.1776 12.338C82.7202 12.8073 83.4242 13.042 84.2896 13.042C84.7589 13.042 85.2649 12.9467 85.8076 12.756C86.3649 12.5653 86.8049 12.3087 87.1276 11.986L88.3596 13.79C87.2889 14.7727 85.8296 15.264 83.9816 15.264ZM86.4236 8.686C86.3796 8.08467 86.1376 7.542 85.6976 7.058C85.2722 6.574 84.6416 6.332 83.8056 6.332C83.0136 6.332 82.3976 6.574 81.9576 7.058C81.5176 7.52733 81.2609 8.07 81.1876 8.686H86.4236ZM111.385 15H108.063L105.489 4.924L102.937 15H99.6146L95.4126 0.325999H98.9106L101.485 10.93L104.279 0.325999H106.721L109.493 10.93L112.045 0.325999H115.565L111.385 15ZM125.265 15H122.471V13.9C121.708 14.8093 120.586 15.264 119.105 15.264C118.152 15.264 117.294 14.956 116.531 14.34C115.783 13.7093 115.409 12.844 115.409 11.744C115.409 10.6 115.776 9.742 116.509 9.17C117.257 8.598 118.122 8.312 119.105 8.312C120.616 8.312 121.738 8.74467 122.471 9.61V8.18C122.471 7.63733 122.258 7.20467 121.833 6.882C121.408 6.55933 120.843 6.398 120.139 6.398C118.98 6.398 117.946 6.816 117.037 7.652L115.981 5.782C117.242 4.66733 118.79 4.11 120.623 4.11C121.987 4.11 123.102 4.42533 123.967 5.056C124.832 5.68667 125.265 6.71333 125.265 8.136V15ZM120.227 13.372C121.268 13.372 122.016 13.064 122.471 12.448V11.128C122.016 10.512 121.268 10.204 120.227 10.204C119.655 10.204 119.178 10.3507 118.797 10.644C118.416 10.9227 118.225 11.3113 118.225 11.81C118.225 12.294 118.416 12.6753 118.797 12.954C119.178 13.2327 119.655 13.372 120.227 13.372ZM133.8 15H130.786L126.518 4.374H129.51L132.282 11.766L135.054 4.374H138.068L133.8 15ZM144.31 15.264C142.667 15.264 141.31 14.7507 140.24 13.724C139.169 12.6973 138.634 11.348 138.634 9.676C138.634 8.10667 139.147 6.78667 140.174 5.716C141.215 4.64533 142.535 4.11 144.134 4.11C145.718 4.11 147.001 4.65267 147.984 5.738C148.966 6.80867 149.458 8.21667 149.458 9.962V10.578H141.56C141.648 11.282 141.963 11.8687 142.506 12.338C143.048 12.8073 143.752 13.042 144.618 13.042C145.087 13.042 145.593 12.9467 146.136 12.756C146.693 12.5653 147.133 12.3087 147.456 11.986L148.688 13.79C147.617 14.7727 146.158 15.264 144.31 15.264ZM146.752 8.686C146.708 8.08467 146.466 7.542 146.026 7.058C145.6 6.574 144.97 6.332 144.134 6.332C143.342 6.332 142.726 6.574 142.286 7.058C141.846 7.52733 141.589 8.07 141.516 8.686H146.752Z" fill="white"/>
</svg>
