<?xml version="1.0" encoding="utf-8"?>
<svg xmlns="http://www.w3.org/2000/svg" xmlns:xlink="http://www.w3.org/1999/xlink">
  <symbol fill="none" viewBox="0 0 40 16" id="a-pay">
    <path fill-rule="evenodd" clip-rule="evenodd" d="M11.603 4.14c-.088-1.07.79-2.14 1.843-2.14 0 1.07-.79 2.186-1.843 2.14zm9.565-.884c-1.053-.698-2.413-.512-3.598-.326v8.326h.746V7.767c.922.14 1.975.093 2.764-.511 1.185-.884 1.317-3.07.088-4zm.132 2.232c0 .698-.483 1.303-1.097 1.489-.614.232-1.887.093-1.887.093V3.535c.79-.14 1.668-.186 2.37.325.526.326.658 1.024.614 1.628zM8.707 4.977c.395-.465 1.01-.744 1.624-.698.482.047.921.372 1.404.419.482-.14.965-.419 1.492-.419.702 0 1.404.28 1.799.93-.527.372-.922 1.024-.922 1.721-.044.837.483 1.628 1.185 1.954-.22.744-.614 1.395-1.097 2-.22.279-.57.511-.965.511-.351 0-.615-.186-.922-.325-.263-.093-.526-.093-.833-.047-.395.093-.79.419-1.229.326-.307-.047-.57-.233-.79-.465-.833-.977-1.36-2.28-1.448-3.628-.043-.837.176-1.675.702-2.28zM26.345 8.28c0-.792.044-1.675-.35-2.373a1.751 1.751 0 00-1.273-.79c-.702-.094-1.492.092-2.062.557.088.186.175.373.263.605.614-.419 1.404-.651 2.062-.326.527.28.658.977.658 1.582-.745.046-1.491.046-2.15.372-.526.233-1.009.744-1.14 1.349-.176.604 0 1.256.395 1.72.526.559 1.404.605 2.106.326.35-.14.614-.372.877-.65 0 .232.044.464.044.697h.658c-.175-1.07-.088-2.093-.088-3.07zm-.921 1.627a1.478 1.478 0 01-1.404.79c-.351 0-.746-.185-.878-.557-.219-.512-.131-1.163.308-1.489.614-.511 1.448-.511 2.193-.558-.044 0 .088 1.302-.219 1.814zm1.579-4.697h.79c.483 1.255.922 2.511 1.404 3.813.132.372.264.744.351 1.117.57-1.628 1.141-3.303 1.711-4.93h.79c-.658 1.86-1.36 3.674-2.062 5.488-.395.976-.79 2-1.58 2.697-.307.28-.658.419-1.009.605-.087-.232-.175-.419-.263-.651.878-.326 1.492-1.163 1.843-2 .044-.14.131-.28.088-.419-.659-1.953-1.36-3.814-2.063-5.72z" fill="#E5E5E5"></path>
  </symbol>
  <symbol viewBox="0 0 284.929 284.929" id="angle-arrow-down">
    <path d="M282.082 76.511l-14.274-14.273c-1.902-1.906-4.093-2.856-6.57-2.856-2.471 0-4.661.95-6.563 2.856L142.466 174.441 30.262 62.241c-1.903-1.906-4.093-2.856-6.567-2.856-2.475 0-4.665.95-6.567 2.856L2.856 76.515C.95 78.417 0 80.607 0 83.082c0 2.473.953 4.663 2.856 6.565l133.043 133.046c1.902 1.903 4.093 2.854 6.567 2.854s4.661-.951 6.562-2.854L282.082 89.647c1.902-1.903 2.847-4.093 2.847-6.565 0-2.475-.945-4.665-2.847-6.571z"></path>
  </symbol>

  <symbol fill="none" viewBox="0 0 14 8" id="arrow-down">
    <path d="M1 1l6 6 6-6" stroke="#000"></path>
  </symbol>
  <symbol fill="none" viewBox="0 0 20 34" id="arrow-next">
    <path d="M.793 1L18 17 .793 33" stroke-width="2"></path>
  </symbol>
  <symbol fill="none" viewBox="0 0 20 34" id="arrow-prev">
    <path d="M19.207 33L2 17 19.207 1" stroke-width="2"></path>
  </symbol>
  <symbol fill="none" viewBox="0 0 32 18" id="car-del">
    <path d="M31.426 6.394l-3.341-.649-3.873-5.5A.59.59 0 0023.727 0H6.228c-.315 0-.577.245-.577.54v4.672H.577c-.315 0-.577.245-.577.54 0 .296.262.541.577.541H8.53c.316 0 .577-.245.577-.54 0-.296-.261-.541-.577-.541H6.806V1.089h16.613l3.834 5.442a.569.569 0 00.362.23l3.11.606v4.13h-11.17v-8.62c0-.296-.262-.541-.578-.541-.316 0-.577.245-.577.54v8.622H6.806V9.422H8.53c.316 0 .577-.245.577-.54 0-.296-.261-.542-.577-.542H6.806v-.504c0-.296-.262-.54-.578-.54-.315 0-.577.244-.577.54v.504H4.173c-.316 0-.578.245-.578.541 0 .296.262.54.578.54h1.485V15.6c0 .295.262.54.578.54h3.618c.262 1.067 1.286 1.86 2.502 1.86 1.417 0 2.564-1.074 2.564-2.4 0-1.327-1.147-2.401-2.564-2.401-1.216 0-2.232.793-2.502 1.86H6.806v-2.48h23.927v2.473H27.76c-.261-1.067-1.285-1.86-2.502-1.86-1.216 0-2.232.793-2.502 1.86h-6.359c-.316 0-.577.245-.577.54 0 .296.261.541.577.541h6.36c.26 1.067 1.285 1.86 2.501 1.86 1.217 0 2.233-.793 2.502-1.86h3.55c.315 0 .577-.245.577-.54V6.92c0-.253-.193-.47-.462-.527zm-19.07 7.88c.778 0 1.41.59 1.41 1.318 0 .728-.632 1.32-1.41 1.32-.777 0-1.409-.592-1.409-1.32 0-.728.632-1.319 1.41-1.319zm12.903 2.645c-.777 0-1.409-.591-1.409-1.32 0-.728.632-1.319 1.41-1.319.777 0 1.408.591 1.408 1.32 0 .728-.631 1.319-1.409 1.319z" fill="#202020"></path>
  </symbol>
  <symbol viewBox="0 0 16 16" id="cart">
    <path d="M4.5 14.5a1 1 0 100-2 1 1 0 000 2zm7.5 0a1 1 0 100-2 1 1 0 000 2z" fill="#fff"></path>
    <path d="M2.5 4h10.901a.5.5 0 01.492.59l-1.09 6a.5.5 0 01-.492.41H4.195a.5.5 0 01-.492-.41L2.12 1.91a.5.5 0 00-.492-.41H.5" stroke-linecap="round" stroke-linejoin="round"></path>
  </symbol>
  <symbol fill="none" viewBox="0 0 20 19" id="clock">
    <path fill-rule="evenodd" clip-rule="evenodd" d="M10.372.8a8.6 8.6 0 100 17.2 8.6 8.6 0 000-17.2zm-9.4 8.6a9.4 9.4 0 1118.8 0 9.4 9.4 0 01-18.8 0z" fill="#000"></path>
    <path fill-rule="evenodd" clip-rule="evenodd" d="M10.372 3a.4.4 0 01.4.4V9h5.6a.4.4 0 010 .8h-6a.4.4 0 01-.4-.4v-6c0-.22.18-.4.4-.4z" fill="#000"></path>
  </symbol>
  <symbol fill="none" viewBox="0 0 13 14" id="close-wide">
    <path stroke="#000" stroke-width="2" d="M12.293 1.55L.979 12.864m11.314 0L.979 1.55"></path>
  </symbol>
  <symbol fill="none" viewBox="0 0 13 13" id="close">
    <path stroke="#9A9A9A" d="M11.667.354L.354 11.667m12.02 0L1.061.354"></path>
  </symbol>
  <symbol fill="none" viewBox="0 0 32 32" id="envelope-open">
    <path d="M4 12v13a1 1 0 001 1h22a1 1 0 001-1V12L16 4 4 12zm9.818 7l-9.51 6.717m23.384 0L18.182 19" stroke="#000" stroke-width="2" stroke-linecap="round" stroke-linejoin="round"></path>
    <path d="M28 12l-9.818 7h-4.364L4 12" stroke="#000" stroke-width="2" stroke-linecap="round" stroke-linejoin="round"></path>
  </symbol>
  <symbol fill="none" viewBox="0 0 12 26" id="fb">
    <path clip-rule="evenodd" d="M11.9 8.5h-4V5.9c0-1 .7-1.2 1.1-1.2h2.8V.3H7.9C3.5.3 2.6 3.6 2.6 5.6v2.9H.1V13h2.5v12.7h5.3V13h3.6l.4-4.5z"></path>
  </symbol>
  <symbol fill="none" viewBox="0 0 40 16" id="g-pay">
    <path fill-rule="evenodd" clip-rule="evenodd" d="M22.733 4.303a2.47 2.47 0 00-1.759-.698h-2.757v7.861h1.046V8.303h1.711c.714 0 1.284-.233 1.76-.651.475-.465.76-1.024.76-1.675-.047-.651-.285-1.21-.76-1.674zm-.76 2.651a1.41 1.41 0 01-1.046.419h-1.711V4.582h1.711c.428 0 .76.14 1.046.418.285.28.428.605.428.977s-.143.698-.428.977zm5.657-.419c-.428-.418-1.046-.604-1.807-.604-.998 0-1.711.372-2.234 1.07l.95.558c.334-.465.809-.698 1.38-.698.38 0 .712.14.998.372.285.233.428.558.428.884v.233c-.38-.233-.904-.326-1.522-.326-.713 0-1.283.186-1.711.512-.428.325-.665.79-.665 1.349 0 .511.19.977.617 1.302.428.372.904.512 1.522.512.713 0 1.283-.326 1.711-.93h.048v.744h.998V8.21c-.048-.744-.238-1.256-.713-1.675zm-.808 3.768a1.562 1.562 0 01-1.141.465c-.286 0-.57-.093-.808-.279-.238-.186-.333-.372-.333-.65 0-.28.143-.56.428-.745.285-.186.618-.28 1.046-.28.57 0 1.045.14 1.33.373-.047.419-.19.79-.522 1.116zM34 6.117l-3.47 7.722h-1.046l1.236-2.698-2.235-5.024h1.094l1.664 3.86 1.616-3.86H34z" fill="#E5E5E5"></path>
    <path d="M14.985 6.721H10.61v1.722h2.52a2.15 2.15 0 01-.903 1.395l1.473 1.117c.856-.791 1.379-1.954 1.379-3.303 0-.372-.048-.651-.095-.93z" fill="#4285F4"></path>
    <path d="M12.18 9.792c-.428.279-.95.418-1.569.418-1.188 0-2.234-.79-2.614-1.86L6.476 9.56c.76 1.488 2.329 2.464 4.135 2.464 1.236 0 2.282-.418 3.043-1.07L12.18 9.793z" fill="#34A853"></path>
    <path d="M8.044 6.675l-1.569-1.21C6.19 6.117 6 6.768 6 7.512c0 .745.19 1.396.475 2.047l1.522-1.163a5 5 0 01-.095-.884c0-.325.047-.604.142-.837z" fill="#FABB05"></path>
    <path d="M13.701 4.163A4.666 4.666 0 0010.611 3a4.686 4.686 0 00-4.135 2.465l1.52 1.163c.381-1.07 1.38-1.86 2.615-1.86a2.47 2.47 0 011.76.697l1.33-1.302z" fill="#E94235"></path>
  </symbol>
  <symbol viewBox="0 0 32 28" id="heart-border-fill">
    <path d="M16.866 26.58l11.725-12.06c2.88-2.962 3.306-7.837.58-10.951a7.54 7.54 0 00-2.442-1.855 7.339 7.339 0 00-5.943-.164 7.51 7.51 0 00-2.535 1.717l-2.203 2.266-1.903-1.957C11.265.613 6.525.176 3.497 2.98a7.73 7.73 0 00-1.803 2.511 7.937 7.937 0 00-.16 6.113 7.762 7.762 0 001.67 2.607l12.025 12.37a1.14 1.14 0 001.637 0z" stroke-linecap="round" stroke-linejoin="round"></path>
  </symbol>
  <symbol viewBox="0 0 32 27" id="heart-fill">
    <path d="M16.803 25.606l11.752-11.789c2.888-2.896 3.314-7.662.581-10.706A7.544 7.544 0 0023.727.603a7.52 7.52 0 00-5.535 2.213l-2.209 2.216-1.907-1.913C11.188.222 6.438-.205 3.404 2.536a7.564 7.564 0 00-2.5 5.426 7.587 7.587 0 002.205 5.553l12.054 12.09a1.158 1.158 0 001.64.001z" fill="#fff" stroke-linecap="round" stroke-linejoin="round"></path>
  </symbol>
  <symbol viewBox="0 0 17 16" id="heart">
    <path d="M9.02 13.243l5.065-5.065c1.244-1.244 1.428-3.291.25-4.6a3.25 3.25 0 00-4.716-.126l-.952.952-.822-.822c-1.245-1.244-3.292-1.428-4.6-.25a3.25 3.25 0 00-.126 4.716l5.194 5.195a.5.5 0 00.707 0v0z" stroke-linecap="round" stroke-linejoin="round"></path>
  </symbol>
  <symbol viewBox="0 0 23 23" id="insta">
    <path d="M11.986 0c-6.074 0-11 4.927-11 11.003 0 6.075 4.926 11.003 11 11.003s11-4.928 11-11.003C22.98 4.927 18.06 0 11.986 0zm5.669 13.466a3.206 3.206 0 01-3.2 3.202h-4.85a3.206 3.206 0 01-3.2-3.202v-4.85a3.206 3.206 0 013.2-3.2h4.848a3.205 3.205 0 013.201 3.2v4.85z"></path>
    <path d="M14.455 6.38H9.606a2.24 2.24 0 00-2.235 2.237v4.85a2.24 2.24 0 002.235 2.235h4.849a2.24 2.24 0 002.235-2.236v-4.85a2.233 2.233 0 00-2.235-2.235zm-2.425 7.541a2.884 2.884 0 01-2.879-2.88 2.884 2.884 0 012.88-2.88 2.884 2.884 0 012.878 2.88 2.877 2.877 0 01-2.879 2.88zm3.007-5.232a.694.694 0 110-1.387.694.694 0 010 1.387z"></path>
    <path d="M12.03 9.122c-1.054 0-1.913.86-1.913 1.914 0 1.054.86 1.914 1.913 1.914 1.054 0 1.914-.86 1.914-1.914a1.91 1.91 0 00-1.914-1.914z"></path>
  </symbol>
  <symbol fill="none" viewBox="0 0 19 25" id="map-marker">
    <path d="M9.75 13.25a3.5 3.5 0 100-7 3.5 3.5 0 000 7z" stroke="#000" stroke-linecap="round" stroke-linejoin="round"></path>
    <path d="M18.5 9.75c0 7.875-8.75 14-8.75 14S1 17.625 1 9.75a8.75 8.75 0 1117.5 0v0z" stroke="#000" stroke-linecap="round" stroke-linejoin="round"></path>
  </symbol>
  <symbol fill="none" viewBox="0 0 40 16" id="master">
    <path d="M12.925 14.338c.172 0 .344.041.473.166s.172.25.172.416v.955h-.344v-.83a.586.586 0 00-.086-.292c-.043-.083-.172-.083-.258-.083a.397.397 0 00-.301.125.371.371 0 00-.13.29v.832h-.344v-.831a.586.586 0 00-.085-.291c-.043-.083-.172-.083-.258-.083a.473.473 0 00-.302.124.371.371 0 00-.129.291v.831h-.344v-1.495h.344v.166c.086-.166.258-.208.473-.208.13 0 .216.042.302.083a.51.51 0 01.215.208c.129-.291.344-.374.602-.374zm2.623 1.537h-.344v-.166c-.129.166-.3.208-.473.208-.215 0-.387-.083-.559-.208a.972.972 0 01-.215-.582c0-.207.086-.415.215-.581.13-.167.344-.208.56-.208.214 0 .386.083.472.208v-.167h.344v1.496zm-.774-1.246a.499.499 0 00-.344.124.655.655 0 00-.129.374c0 .125.043.25.13.333a.498.498 0 00.343.124c.13 0 .258-.041.344-.124a.463.463 0 00.13-.333.463.463 0 00-.13-.332c-.086-.083-.215-.166-.344-.166zm2.366.124a.335.335 0 00-.215-.083c-.086-.041-.172-.041-.258-.041-.086 0-.172 0-.215.041-.043.042-.086.083-.086.125 0 .041.043.083.086.125.043.041.086.041.172.041l.172.042c.344.041.559.207.559.457 0 .166-.043.25-.172.374-.13.083-.301.124-.516.124-.086 0-.215 0-.344-.041a1.308 1.308 0 01-.345-.166l.173-.25a.943.943 0 00.516.167c.129 0 .215 0 .258-.042.043-.041.086-.083.086-.125 0-.083-.086-.124-.258-.166h-.172c-.172-.041-.301-.083-.387-.166a.371.371 0 01-.13-.29c0-.167.044-.25.173-.333a.792.792 0 01.473-.125c.258 0 .473.042.645.166l-.215.166zm1.634-.083h-.602v.665c0 .083.043.166.086.208.043.042.086.083.172.083a.818.818 0 00.301-.083l.13.25c-.173.082-.302.165-.474.165a.745.745 0 01-.43-.124c-.086-.083-.13-.25-.13-.457v-.665h-.3v-.29h.3v-.458h.345v.457h.602v.25zm1.076-.332c.214 0 .386.083.515.208a.883.883 0 01.216.581v.125h-1.119c0 .125.086.208.172.29.086.084.172.084.301.084a.563.563 0 00.43-.166l.173.25a1.081 1.081 0 01-.646.207.834.834 0 01-.559-.208c-.129-.125-.215-.332-.215-.582a.88.88 0 01.215-.581.725.725 0 01.516-.208zm0 .29a.637.637 0 00-.302.084.371.371 0 00-.129.29h.817a.371.371 0 00-.129-.29c-.043-.042-.129-.083-.258-.083zm1.978-.29a.57.57 0 01.258.041l-.086.333c-.086-.042-.172-.042-.258-.042-.13 0-.215.042-.258.125-.086.083-.086.166-.086.29v.832h-.344V14.42h.344v.166c.043-.166.215-.25.43-.25zm1.291 0a.98.98 0 01.344.041.919.919 0 01.258.167l-.215.207c-.13-.083-.259-.166-.387-.166a.498.498 0 00-.345.125.463.463 0 00-.129.332c0 .125.043.25.13.333a.498.498 0 00.344.124.534.534 0 00.387-.166l.215.208c-.13.166-.345.25-.602.25a.952.952 0 01-.603-.209c-.172-.166-.215-.332-.215-.581 0-.208.086-.416.215-.582.172 0 .344-.083.603-.083zm2.451 1.537h-.344v-.166c-.13.166-.301.208-.473.208-.215 0-.387-.083-.56-.208a.882.882 0 01-.215-.582c0-.207.086-.415.216-.581.129-.167.344-.208.559-.208.215 0 .387.083.473.208v-.167h.344v1.496zm-.774-1.246a.499.499 0 00-.344.124.463.463 0 00-.13.333c0 .124.044.25.13.332a.499.499 0 00.344.125.499.499 0 00.344-.125.463.463 0 00.129-.332.463.463 0 00-.13-.333c-.085-.041-.214-.124-.343-.124zm2.107-.291a.57.57 0 01.258.041l-.086.333c-.086-.042-.172-.042-.258-.042-.129 0-.215.042-.258.125-.086.083-.086.166-.086.29v.832h-.344V14.42h.344v.166c.086-.166.215-.25.43-.25zm1.247 0c.216 0 .388.083.474.208v-.956h.344v2.244h-.344v-.166c-.13.166-.301.207-.473.207-.215 0-.387-.083-.56-.207a.883.883 0 01-.215-.582c0-.208.086-.416.215-.582.173-.083.345-.166.56-.166zm.044.29a.498.498 0 00-.344.125.463.463 0 00-.13.333c0 .124.044.25.13.332a.498.498 0 00.344.125.499.499 0 00.344-.125.463.463 0 00.129-.332.463.463 0 00-.13-.333c-.085-.041-.214-.124-.343-.124zm1.548 1.122h.043v.084h-.043l.043.041-.043-.041v.041h-.043v-.166h.043v.042zm-.043.042c.043.042.043.042.086.042 0-.042-.043-.042-.086-.042z" fill="#E5E5E5"></path>
    <path d="M29.742 15.668c-.086 0-.172.083-.172.166s.086.166.172.166.172-.083.172-.166-.086-.166-.172-.166zm0 .29c-.086 0-.13-.041-.13-.124 0-.083.044-.125.13-.125.086 0 .129.042.129.125 0 .083-.043.124-.13.124z" fill="#E5E5E5"></path>
    <path d="M17.613 6.983c0-1.911.946-3.656 2.409-4.736C18.988 1.457 17.655 1 16.236 1 12.796 1 10 3.7 10 6.983c0 3.324 2.796 5.984 6.194 5.984 1.419 0 2.752-.457 3.785-1.247a5.878 5.878 0 01-2.366-4.737z" fill="#EB001B"></path>
    <path d="M23.806 1c-1.419 0-2.752.457-3.785 1.247 1.463 1.08 2.41 2.825 2.41 4.736 0 1.912-.947 3.657-2.41 4.737 1.033.79 2.366 1.247 3.785 1.247 3.441 0 6.194-2.701 6.194-5.984C30 3.701 27.204 1 23.806 1z" fill="#F79F1B"></path>
    <path d="M19.978 11.72c1.33 0 2.409-2.12 2.409-4.737 0-2.616-1.078-4.736-2.409-4.736-1.33 0-2.408 2.12-2.408 4.736 0 2.617 1.078 4.737 2.408 4.737z" fill="#FF6002"></path>
    <path d="M29.699 9.933h-.086v.208h-.043v-.166h-.086v-.042h.215zm.301.208l-.043-.166-.086.166h-.043l-.043-.208v.208h-.043v-.208h.043l.086.167.086-.167H30v.208z" fill="#F79F1B"></path>
  </symbol>
  <symbol fill="none" viewBox="0 0 40 16" id="paypal">
    <path fill-rule="evenodd" clip-rule="evenodd" d="M9.375 4H7.167c-.125 0-.25.134-.292.268L6 10.257c0 .134.083.223.167.223h1.041c.167 0 .292-.134.292-.268l.25-1.609c0-.178.167-.268.292-.268h.666c1.417 0 2.25-.76 2.459-2.234C11.417 4.76 10.792 4 9.375 4zm.25 2.19c-.125.85-.708.85-1.292.85H8l.208-1.565c0-.09.084-.179.167-.179h.167c.625 0 1.208 0 1.083.894zm6.25-.045h-1.042c-.083 0-.166.09-.166.179l-.042.313-.083-.134c-.209-.358-.709-.492-1.25-.492-1.125 0-2.125.939-2.334 2.28-.166 1.027.25 2.279 1.709 2.279.916 0 1.458-.626 1.458-.626l-.042.313c0 .134.084.223.167.223h.917c.166 0 .291-.134.291-.268l.584-3.843c.041-.09-.084-.224-.167-.224zm-1.458 2.19c-.084.626-.584 1.073-1.167 1.073-.625 0-.958-.492-.875-1.073.083-.626.583-1.072 1.167-1.072.625 0 .958.446.875 1.072zm7-2.19h-1.042c-.083 0-.208.045-.25.134l-1.458 2.28-.584-2.19a.316.316 0 00-.291-.224H16.75c-.125 0-.208.134-.167.268l1.167 3.62-1.083 1.654c-.084.134 0 .313.166.313h1.042c.083 0 .208-.045.25-.134l3.5-5.408c.042-.134-.042-.313-.208-.313zM24.875 4h-2.167c-.166 0-.291.134-.291.268l-.917 5.989c0 .134.083.223.167.223h1.041c.167 0 .292-.134.292-.268l.25-1.609c0-.178.167-.268.292-.268h.666c1.417 0 2.25-.76 2.459-2.234C26.958 4.76 26.333 4 24.875 4zm.25 2.19c-.125.85-.708.85-1.292.85H23.5l.208-1.565c0-.09.084-.179.167-.179h.167c.625 0 1.208 0 1.083.894zm6.25-.045h-1.042c-.083 0-.166.09-.166.179l-.042.313-.083-.134c-.209-.358-.709-.492-1.25-.492-1.125 0-2.125.939-2.334 2.28-.166 1.027.25 2.279 1.709 2.279.916 0 1.458-.626 1.458-.626l-.042.313c0 .134.084.223.167.223h.917c.166 0 .291-.134.291-.268l.584-3.843c.041-.09-.042-.224-.167-.224zm-1.458 2.19c-.084.626-.584 1.073-1.167 1.073-.625 0-.958-.492-.875-1.073.083-.626.583-1.072 1.167-1.072.625 0 .958.446.875 1.072zm2.708-4.156l-.917 6.078c0 .134.084.223.167.223h.875c.167 0 .292-.134.292-.268l.875-5.989C34 4.09 33.917 4 33.792 4h-1c-.084 0-.167.09-.167.179z" fill="#E5E5E5"></path>
  </symbol>
  <symbol fill="none" viewBox="0 0 48 54" id="play">
    <path d="M45.174 23.666c2.666 1.54 2.666 5.389 0 6.928L6.109 53.15c-2.667 1.54-6-.385-6-3.464V4.576c0-3.08 3.333-5.004 6-3.464l39.065 22.554z" fill="#fff"></path>
  </symbol>
  <symbol fill="none" viewBox="0 0 16 16" id="plus">
    <path stroke="#000" stroke-width="2" d="M0 8h16M8 0v16"></path>
  </symbol>
  <symbol fill="none" viewBox="0 0 20 19" id="price-round">
    <g clip-path="url(#clip0)" fill="#000">
      <path d="M10.472 19a9.438 9.438 0 01-6.717-2.783A9.438 9.438 0 01.972 9.5c0-2.537.988-4.923 2.783-6.717A9.438 9.438 0 0110.472 0c2.537 0 4.923.988 6.717 2.783A9.438 9.438 0 0119.973 9.5a9.438 9.438 0 01-2.783 6.717A9.438 9.438 0 0110.473 19zm0-18.177C5.688.823 1.795 4.715 1.795 9.5s3.893 8.677 8.677 8.677c4.785 0 8.678-3.892 8.678-8.677S15.257.823 10.472.823z"></path>
      <path d="M10.472 15.364a.41.41 0 01-.411-.412v-1.406H8.654a.41.41 0 110-.823h2.424c.776 0 1.407-.631 1.407-1.407 0-.775-.631-1.407-1.407-1.407H9.866a2.232 2.232 0 01-2.23-2.229c0-1.228 1-2.23 2.23-2.23h.195V4.045a.41.41 0 11.822 0V5.45h1.407a.41.41 0 110 .822H9.866c-.775 0-1.407.632-1.407 1.407s.632 1.407 1.407 1.407h1.212a2.23 2.23 0 010 4.459h-.194v1.407a.412.412 0 01-.412.41z"></path>
    </g>
    <defs>
      <clipPath id="clip0">
        <path fill="#fff" transform="translate(.972)" d="M0 0h19v19H0z"></path>
      </clipPath>
    </defs>
  </symbol>
  <symbol fill="none" viewBox="0 0 80 62" id="qw">
    <path d="M44.246 0H80v31.267c0 5.229-.944 9.497-2.726 13.019-1.887 3.414-4.194 6.296-7.13 8.537-2.936 2.24-6.186 4.055-9.75 5.442-3.566 1.387-7.13 2.561-10.695 3.735l-5.243-9.71c2.621-1.068 4.928-2.028 6.815-3.096 1.888-1.067 3.46-2.24 4.614-3.414 1.153-1.28 2.097-2.668 2.62-4.269.525-1.6.84-3.521.84-5.656H44.246V0zM0 0h35.649v31.267c0 5.229-.944 9.497-2.726 13.019-1.888 3.414-4.194 6.296-7.13 8.537-2.936 2.24-6.186 4.055-9.751 5.442-3.565 1.387-7.13 2.561-10.695 3.735L.105 52.29c2.621-1.068 4.928-2.135 6.815-3.202 1.887-1.067 3.46-2.241 4.613-3.415 1.154-1.28 2.097-2.668 2.622-4.269.524-1.6.838-3.521.838-5.655H0V0z" fill="#DADADA"></path>
  </symbol>
  <symbol viewBox="0 0 16 16" id="search">
    <path d="M7.25 12.5a5.25 5.25 0 100-10.5 5.25 5.25 0 000 10.5zm3.712-1.537L14 14" stroke-linecap="round" stroke-linejoin="round"></path>
  </symbol>
  <symbol fill="none" viewBox="0 0 21 20" id="t-shirt">
    <path d="M20.783 7.338l-3.885-2.636a.463.463 0 00-.18-.074l-3.505-.657-1.773-.554v-.645c.72-.215 1.163-.888 1.03-1.595-.137-.731-.836-1.24-1.628-1.173C10.05.066 9.45.677 9.453 1.42c0 .24.208.434.465.434.256 0 .464-.194.464-.434 0-.306.266-.558.597-.558.332 0 .598.248.598.558 0 .31-.266.558-.598.558-.256 0-.464.194-.464.434V3.42l-1.774.554-3.508.653a.519.519 0 00-.16.057L1.19 6.995a.42.42 0 00-.142.6l2.473 3.628a.49.49 0 00.703.087l.637-.542v8.798c0 .24.208.433.465.433h11.303c.256 0 .464-.194.464-.433v-8.744l.655.5a.483.483 0 00.677-.087l2.473-3.298a.425.425 0 00-.115-.599zm-9.808-1.4c-.787 0-1.469-.53-1.615-1.244l1.615-.504 1.615.504c-.146.715-.828 1.243-1.615 1.243zM5.512 9.391a.487.487 0 00-.5.074l-1.004.856-1.93-2.827 3.42-2.033 2.951-.55c.257 1.104 1.3 1.897 2.522 1.897 1.22 0 2.265-.789 2.521-1.896l2.938.55 3.437 2.334-1.925 2.566-1.026-.785a.489.489 0 00-.49-.058.439.439 0 00-.266.393v9.219H5.786V9.789a.435.435 0 00-.274-.397z" fill="#000"></path>
  </symbol>
  <symbol viewBox="0 0 24 24" id="telegram">
    <path d="M9.417 15.181l-.397 5.584c.568 0 .814-.244 1.109-.537l2.663-2.545 5.518 4.041c1.012.564 1.725.267 1.998-.931L23.93 3.821l.001-.001c.321-1.496-.541-2.081-1.527-1.714l-21.29 8.151c-1.453.564-1.431 1.374-.247 1.741l5.443 1.693L18.953 5.78c.595-.394 1.136-.176.691.218z"></path>
  </symbol>
  <symbol viewBox="0 0 17 16" id="user">
    <path d="M8.333 10a4 4 0 100-8 4 4 0 000 8z" stroke-miterlimit="10"></path>
    <path d="M2.27 13.5a7.003 7.003 0 0112.127 0" stroke-linecap="round" stroke-linejoin="round"></path>
  </symbol>
  <symbol fill="none" viewBox="0 0 40 16" id="visa">
    <path d="M30.386 4.105h-1.509c-.456 0-.807.14-1.017.597l-2.878 6.56h2.035s.351-.877.422-1.087h2.49c.071.245.246 1.052.246 1.052H32l-1.614-7.122zM28 8.701c.175-.42.772-2 .772-2 0 .035.175-.42.245-.666l.14.631s.387 1.72.457 2.07H28v-.035zm-2.877.211c0 1.473-1.334 2.455-3.404 2.455-.877 0-1.72-.175-2.175-.386l.28-1.613.246.105c.632.28 1.053.386 1.825.386.561 0 1.157-.21 1.157-.702 0-.316-.245-.526-1.017-.877-.737-.35-1.72-.912-1.72-1.93 0-1.403 1.37-2.35 3.299-2.35.737 0 1.368.14 1.754.316l-.28 1.543-.14-.14a3.788 3.788 0 00-1.474-.28c-.737.034-1.088.35-1.088.63 0 .317.42.562 1.088.878 1.122.526 1.649 1.123 1.649 1.965zM8 4.175l.035-.14h3.018c.42 0 .736.14.842.596l.666 3.158C11.895 6.105 10.351 4.737 8 4.175z" fill="#E5E5E5"></path>
    <path d="M16.807 4.105l-3.053 7.122h-2.07L9.93 5.263c1.263.807 2.316 2.07 2.701 2.947l.211.737 1.895-4.877h2.07v.035zm.807-.035h1.93l-1.228 7.157h-1.93l1.228-7.157z" fill="#E5E5E5"></path>
  </symbol>
  <symbol viewBox="0 0 22 23" id="vk">
    <path d="M11 0C4.926 0 0 4.927 0 11.003c0 6.075 4.926 11.003 11 11.003s11-4.928 11-11.003C21.994 4.927 17.069 0 11 0zm6.396 15.136H15.87c-.582 0-.748-.46-1.786-1.498-.904-.87-1.292-.982-1.514-.982-.305 0-.4.089-.4.522v1.365c0 .377-.122.593-1.087.593-1.614 0-3.384-.982-4.643-2.785-1.886-2.647-2.402-4.65-2.402-5.05 0-.227.09-.432.522-.432h1.525c.389 0 .538.172.683.594.743 2.17 2.002 4.067 2.518 4.067.194 0 .283-.089.283-.583V8.706c-.056-1.032-.605-1.116-.605-1.487 0-.172.144-.35.388-.35h2.391c.322 0 .433.172.433.56v3.019c0 .322.139.438.239.438.194 0 .355-.11.71-.466 1.098-1.226 1.869-3.113 1.869-3.113.094-.227.277-.432.66-.432h1.526c.46 0 .554.238.46.56-.194.888-2.047 3.501-2.047 3.501-.16.261-.227.389 0 .677.16.228.693.677 1.049 1.099.654.738 1.148 1.36 1.286 1.786.117.417-.1.638-.532.638z"></path>
  </symbol>
  <symbol fill="none" viewBox="0 0 24 24" id="wallet">
    <g clip-path="url(#clip0)" fill="#000">
      <path d="M22.91 12.1V8.723c0-1.145-.89-2.076-2.01-2.163l-3.134-5.472A2.146 2.146 0 0016.446.07a2.146 2.146 0 00-1.641.22L4.071 6.546H2.184A2.183 2.183 0 000 8.729v13.092c0 1.202.977 2.184 2.184 2.184h18.548a2.186 2.186 0 002.184-2.184v-3.375a1.628 1.628 0 001.09-1.534v-3.273a1.651 1.651 0 00-1.095-1.54zm-3.277-5.554h-4.756l3.564-2.077 1.192 2.077zm-1.729-3.023l-5.19 3.023H10.56l6.807-3.964.537.941zm-2.547-2.286c.246-.143.537-.184.808-.107.277.077.512.256.655.506l-8.433 4.91H6.234l9.123-5.309zm6.464 20.584c0 .603-.49 1.09-1.089 1.09H2.184a1.09 1.09 0 01-1.09-1.09V8.73a1.09 1.09 0 011.09-1.089h18.548c.604 0 1.09.49 1.09 1.09v3.272h-3.273a3.276 3.276 0 00-3.274 3.273 3.276 3.276 0 003.274 3.273h3.272v3.273zm1.09-4.91a.548.548 0 01-.548.548h-3.82a2.186 2.186 0 01-2.183-2.184c0-1.202.976-2.184 2.183-2.184h3.82c.302 0 .548.246.548.548v3.273z"></path>
      <path d="M18.549 14.181a1.09 1.09 0 00-1.09 1.09c0 .598.491 1.089 1.09 1.089.598 0 1.089-.491 1.089-1.09 0-.598-.49-1.089-1.09-1.089z"></path>
    </g>
    <defs>
      <clipPath id="clip0">
        <path fill="#fff" d="M0 0h24v24H0z"></path>
      </clipPath>
    </defs>
  </symbol>
  <symbol fill="none" viewBox="0 0 33 32" id="warning">
    <path d="M16.5 28c6.834 0 12.375-5.373 12.375-12S23.335 4 16.5 4 4.125 9.373 4.125 16 9.665 28 16.5 28z" stroke="#9A9A9A" stroke-width="2" stroke-miterlimit="10"></path>
    <path d="M16.5 10v7" stroke="#9A9A9A" stroke-width="2" stroke-linecap="round" stroke-linejoin="round"></path>
    <path d="M17.984 21.5c0 .792-.662 1.438-1.484 1.438s-1.484-.646-1.484-1.438c0-.792.662-1.438 1.484-1.438s1.484.646 1.484 1.438z" fill="#9A9A9A" stroke="#9A9A9A" stroke-width=".125"></path>
  </symbol>
  <symbol viewBox="0 -77 512.002 512" id="youtube">
    <path d="M501.453 56.094c-5.902-21.934-23.195-39.223-45.125-45.13C416.262 0 255.996 0 255.996 0S95.734 0 55.668 10.547C34.16 16.449 16.445 34.164 10.543 56.094 0 96.156 0 179.242 0 179.242s0 83.504 10.543 123.149c5.906 21.93 23.195 39.222 45.129 45.129C96.156 358.484 256 358.484 256 358.484s160.262 0 200.328-10.546c21.934-5.903 39.223-23.196 45.129-45.125C512 262.745 512 179.663 512 179.663s.422-83.508-10.547-123.57zm0 0" fill="red"></path>
    <path d="M204.969 256l133.27-76.758-133.27-76.758zm0 0" fill="#fff"></path>
  </symbol>
</svg>