<svg width="40" height="16" viewBox="0 0 40 16" fill="none" xmlns="http://www.w3.org/2000/svg">
<path fill-rule="evenodd" clip-rule="evenodd" d="M11.6032 4.13953C11.5155 3.06977 12.393 2 13.446 2C13.446 3.06977 12.6562 4.18605 11.6032 4.13953Z" fill="#E5E5E5"/>
<path fill-rule="evenodd" clip-rule="evenodd" d="M21.1681 3.25571C20.1151 2.55803 18.755 2.74408 17.5703 2.93013V11.2557H18.3162V7.76734C19.2376 7.90687 20.2906 7.86036 21.0804 7.25571C22.265 6.37199 22.3966 4.18594 21.1681 3.25571ZM21.2997 5.48827C21.2997 6.18594 20.8171 6.79059 20.2029 6.97664C19.5886 7.2092 18.3162 7.06966 18.3162 7.06966V3.53478C19.106 3.39524 19.9835 3.34873 20.6855 3.86036C21.212 4.18594 21.3436 4.88362 21.2997 5.48827Z" fill="#E5E5E5"/>
<path fill-rule="evenodd" clip-rule="evenodd" d="M8.70747 4.97676C9.10235 4.51164 9.71661 4.23257 10.3309 4.27908C10.8135 4.32559 11.2523 4.65118 11.7349 4.69769C12.2175 4.55815 12.7002 4.27908 13.2267 4.27908C13.9287 4.27908 14.6307 4.55815 15.0256 5.20932C14.4991 5.58141 14.1042 6.23257 14.1042 6.93025C14.0603 7.76746 14.5868 8.55815 15.2888 8.88374C15.0694 9.62792 14.6746 10.2791 14.1919 10.8837C13.9726 11.1628 13.6215 11.3954 13.2267 11.3954C12.8757 11.3954 12.6124 11.2093 12.3053 11.0698C12.042 10.9768 11.7788 10.9768 11.4716 11.0233C11.0768 11.1163 10.6819 11.4419 10.2431 11.3489C9.93599 11.3023 9.67274 11.1163 9.45336 10.8837C8.61972 9.90699 8.09321 8.60467 8.00546 7.25583C7.96158 6.41862 8.18096 5.58141 8.70747 4.97676Z" fill="#E5E5E5"/>
<path fill-rule="evenodd" clip-rule="evenodd" d="M26.3454 8.27906C26.3454 7.48837 26.3893 6.60465 25.9944 5.90697C25.6872 5.44185 25.2046 5.16279 24.722 5.11627C24.02 5.02325 23.2302 5.2093 22.6598 5.67441C22.7476 5.86046 22.8353 6.04651 22.9231 6.27906C23.5373 5.86046 24.3271 5.6279 24.9852 5.95348C25.5117 6.23255 25.6434 6.93023 25.6434 7.53488C24.8975 7.58139 24.1516 7.58139 23.4935 7.90697C22.967 8.13953 22.4843 8.65116 22.3527 9.25581C22.1772 9.86046 22.3527 10.5116 22.7476 10.9767C23.2741 11.5349 24.1516 11.5814 24.8536 11.3023C25.2046 11.1628 25.4679 10.9302 25.7311 10.6512C25.7311 10.8837 25.775 11.1163 25.775 11.3488H26.4331C26.2576 10.2791 26.3454 9.25581 26.3454 8.27906ZM25.424 9.90697C25.1607 10.4186 24.5904 10.7442 24.02 10.6977C23.669 10.6977 23.2741 10.5116 23.1425 10.1395C22.9231 9.6279 23.0108 8.97674 23.4496 8.65116C24.0638 8.13953 24.8975 8.13953 25.6434 8.09302C25.5995 8.09302 25.7311 9.39534 25.424 9.90697Z" fill="#E5E5E5"/>
<path fill-rule="evenodd" clip-rule="evenodd" d="M27.0034 5.20935C27.2667 5.20935 27.5299 5.20935 27.7932 5.20935C28.2758 6.46516 28.7146 7.72098 29.1972 9.0233C29.3288 9.3954 29.4605 9.76749 29.5482 10.1396C30.1186 8.51168 30.689 6.83726 31.2594 5.20935C31.5226 5.20935 31.7859 5.20935 32.0491 5.20935C31.391 7.06982 30.689 8.88377 29.987 10.6977C29.5921 11.6745 29.1972 12.6977 28.4074 13.3954C28.1003 13.6745 27.7493 13.814 27.3983 14C27.3105 13.7675 27.2228 13.5814 27.135 13.3489C28.0126 13.0233 28.6268 12.1861 28.9778 11.3489C29.0217 11.2094 29.1095 11.0698 29.0656 10.9303C28.4074 8.97679 27.7054 7.11633 27.0034 5.20935Z" fill="#E5E5E5"/>
</svg>
