<svg width="32" height="18" viewBox="0 0 32 18" fill="none" xmlns="http://www.w3.org/2000/svg">
<path d="M31.4258 6.39407L28.0846 5.74529L24.2122 0.245094C24.1044 0.0937126 23.9273 0 23.7272 0H6.22819C5.91255 0 5.65079 0.245094 5.65079 0.540649V5.21185H0.577397C0.261753 5.21185 0 5.45695 0 5.7525C0 6.04806 0.261753 6.29315 0.577397 6.29315H8.53008C8.84572 6.29315 9.10748 6.04806 9.10748 5.7525C9.10748 5.45695 8.84572 5.21185 8.53008 5.21185H6.80559V1.08851H23.4192L27.2531 6.53104C27.3378 6.65358 27.4687 6.73288 27.615 6.76171L30.7252 7.36724V11.4978H19.5545V2.87625C19.5545 2.5807 19.2928 2.3356 18.9771 2.3356C18.6615 2.3356 18.3997 2.5807 18.3997 2.87625V11.4978H6.80559V9.42171H8.53008C8.84572 9.42171 9.10748 9.17661 9.10748 8.88106C9.10748 8.5855 8.84572 8.34041 8.53008 8.34041H6.80559V7.8358C6.80559 7.54025 6.54383 7.29515 6.22819 7.29515C5.91255 7.29515 5.65079 7.54025 5.65079 7.8358V8.34041H4.17266C3.85701 8.34041 3.59526 8.5855 3.59526 8.88106C3.59526 9.17661 3.85701 9.42171 4.17266 9.42171H5.65849V12.0384V15.5995C5.65849 15.8951 5.92025 16.1402 6.23589 16.1402H9.85424C10.116 17.2071 11.1399 18 12.3563 18C13.7728 18 14.9199 16.9259 14.9199 15.5995C14.9199 14.2731 13.7728 13.199 12.3563 13.199C11.1399 13.199 10.1237 13.992 9.85424 15.0589H6.80559V12.5791H30.7329V15.0517H27.7613C27.4995 13.9848 26.4756 13.1918 25.2592 13.1918C24.0428 13.1918 23.0266 13.9848 22.7571 15.0517H16.3981C16.0824 15.0517 15.8207 15.2968 15.8207 15.5923C15.8207 15.8879 16.0824 16.133 16.3981 16.133H22.7571C23.0189 17.1998 24.0428 17.9928 25.2592 17.9928C26.4756 17.9928 27.4918 17.1998 27.7613 16.133H31.3103C31.626 16.133 31.8877 15.8879 31.8877 15.5923V12.0312V6.9203C31.8877 6.668 31.6953 6.45174 31.4258 6.39407ZM12.3563 14.2731C13.1339 14.2731 13.7651 14.8642 13.7651 15.5923C13.7651 16.3204 13.1339 16.9115 12.3563 16.9115C11.5787 16.9115 10.9474 16.3204 10.9474 15.5923C10.9474 14.8642 11.5787 14.2731 12.3563 14.2731ZM25.2592 16.9187C24.4816 16.9187 23.8503 16.3276 23.8503 15.5995C23.8503 14.8714 24.4816 14.2803 25.2592 14.2803C26.0368 14.2803 26.668 14.8714 26.668 15.5995C26.668 16.3276 26.0368 16.9187 25.2592 16.9187Z" fill="#202020"/>
</svg>
