<svg width="16" height="16" viewBox="0 0 16 16" fill="none" xmlns="http://www.w3.org/2000/svg">
<path d="M4.5 14.5C5.05228 14.5 5.5 14.0523 5.5 13.5C5.5 12.9477 5.05228 12.5 4.5 12.5C3.94772 12.5 3.5 12.9477 3.5 13.5C3.5 14.0523 3.94772 14.5 4.5 14.5Z" fill="white"/>
<path d="M12 14.5C12.5523 14.5 13 14.0523 13 13.5C13 12.9477 12.5523 12.5 12 12.5C11.4477 12.5 11 12.9477 11 13.5C11 14.0523 11.4477 14.5 12 14.5Z" fill="white"/>
<path d="M2.5 4H13.401C13.4742 4 13.5465 4.01609 13.6129 4.04712C13.6792 4.07816 13.7379 4.12339 13.7848 4.17961C13.8317 4.23583 13.8657 4.30167 13.8844 4.37248C13.9031 4.44329 13.906 4.51734 13.8929 4.58939L12.8026 10.5894C12.7817 10.7046 12.721 10.8088 12.6311 10.8839C12.5412 10.9589 12.4278 11 12.3107 11H4.19491C4.07786 11 3.96452 10.9589 3.87464 10.884C3.78475 10.809 3.72402 10.7049 3.70302 10.5897L2.12028 1.9103C2.09928 1.79515 2.03855 1.69102 1.94866 1.61604C1.85878 1.54107 1.74544 1.5 1.62839 1.5H0.5" stroke="white" stroke-linecap="round" stroke-linejoin="round"/>
</svg>
