<svg width="20" height="19" viewBox="0 0 20 19" fill="none" xmlns="http://www.w3.org/2000/svg">
<path fill-rule="evenodd" clip-rule="evenodd" d="M10.3722 0.8C5.62252 0.8 1.77217 4.65035 1.77217 9.4C1.77217 14.1496 5.62252 18 10.3722 18C15.1218 18 18.9722 14.1496 18.9722 9.4C18.9722 4.65035 15.1218 0.8 10.3722 0.8ZM0.972168 9.4C0.972168 4.20852 5.18069 0 10.3722 0C15.5636 0 19.7722 4.20852 19.7722 9.4C19.7722 14.5915 15.5636 18.8 10.3722 18.8C5.18069 18.8 0.972168 14.5915 0.972168 9.4Z" fill="black"/>
<path fill-rule="evenodd" clip-rule="evenodd" d="M10.3722 3C10.5931 3 10.7722 3.17909 10.7722 3.4V9H16.3722C16.5931 9 16.7722 9.17909 16.7722 9.4C16.7722 9.62091 16.5931 9.8 16.3722 9.8H10.3722C10.1513 9.8 9.97217 9.62091 9.97217 9.4V3.4C9.97217 3.17909 10.1513 3 10.3722 3Z" fill="black"/>
</svg>
