<svg width="40" height="16" viewBox="0 0 40 16" fill="none" xmlns="http://www.w3.org/2000/svg">
<path fill-rule="evenodd" clip-rule="evenodd" d="M22.7334 4.30251C22.258 3.83733 21.64 3.60474 20.9745 3.60474H18.2173V11.4663H19.2631V8.30306H20.9745C21.6876 8.30306 22.258 8.07047 22.7334 7.65181C23.2088 7.18663 23.494 6.62841 23.494 5.97716C23.4465 5.3259 23.2088 4.76769 22.7334 4.30251ZM21.9728 6.95404C21.6876 7.23314 21.3548 7.3727 20.927 7.3727H19.2156V4.58162H20.927C21.3548 4.58162 21.6876 4.72117 21.9728 5.00028C22.258 5.27939 22.4006 5.60501 22.4006 5.97716C22.4006 6.3493 22.258 6.67493 21.9728 6.95404Z" fill="#E5E5E5"/>
<path fill-rule="evenodd" clip-rule="evenodd" d="M27.6298 6.53537C27.202 6.11671 26.584 5.93064 25.8234 5.93064C24.8251 5.93064 24.112 6.30278 23.5891 7.00055L24.5398 7.55877C24.8726 7.09359 25.348 6.861 25.9185 6.861C26.2988 6.861 26.6315 7.00055 26.9168 7.23314C27.202 7.46573 27.3446 7.79136 27.3446 8.11699V8.34958C26.9643 8.11699 26.4414 8.02395 25.8234 8.02395C25.1103 8.02395 24.5398 8.21002 24.112 8.53565C23.6842 8.86128 23.4465 9.32646 23.4465 9.88467C23.4465 10.3964 23.6366 10.8616 24.0645 11.1872C24.4923 11.5593 24.9677 11.6989 25.5857 11.6989C26.2988 11.6989 26.8692 11.3733 27.2971 10.7685H27.3446V11.5128H28.3429V8.21002C28.2954 7.46573 28.1052 6.95404 27.6298 6.53537ZM26.8217 10.3033C26.4889 10.629 26.1086 10.7685 25.6808 10.7685C25.3955 10.7685 25.1103 10.6755 24.8726 10.4894C24.6349 10.3033 24.5398 10.1173 24.5398 9.83815C24.5398 9.55905 24.6825 9.27994 24.9677 9.09387C25.2529 8.90779 25.5857 8.81476 26.0135 8.81476C26.584 8.81476 27.0594 8.95431 27.3446 9.1869C27.2971 9.60557 27.1544 9.97771 26.8217 10.3033Z" fill="#E5E5E5"/>
<path fill-rule="evenodd" clip-rule="evenodd" d="M34 6.11676L30.5297 13.8388H29.4838L30.7198 11.1407L28.4855 6.11676H29.5789L31.2427 9.97776L32.859 6.11676H34Z" fill="#E5E5E5"/>
<path d="M14.9848 6.72144H10.6113V8.4426H13.1309C13.0358 9.00082 12.703 9.51252 12.2276 9.83815L13.7013 10.9546C14.557 10.1638 15.0799 9.00082 15.0799 7.6518C15.0799 7.27965 15.0324 7.00054 14.9848 6.72144Z" fill="#4285F4"/>
<path d="M12.1802 9.79167C11.7523 10.0708 11.2294 10.2103 10.6114 10.2103C9.42295 10.2103 8.37711 9.41953 7.99681 8.34961L6.47559 9.55908C7.2362 11.0477 8.80496 12.0245 10.6114 12.0245C11.8474 12.0245 12.8932 11.6059 13.6539 10.9546L12.1802 9.79167Z" fill="#34A853"/>
<path d="M8.04414 6.67492L6.47538 5.46545C6.19015 6.11671 6 6.76796 6 7.51225C6 8.25654 6.19015 8.90779 6.47538 9.55904L7.9966 8.39609C7.94907 8.11698 7.90153 7.83788 7.90153 7.51225C7.90153 7.18662 7.94907 6.90751 8.04414 6.67492Z" fill="#FABB05"/>
<path d="M13.7014 4.16295C12.8932 3.46518 11.8474 3 10.6114 3C8.80496 3 7.2362 4.0234 6.47559 5.46546L7.99681 6.62841C8.37711 5.55849 9.37542 4.76769 10.6114 4.76769C11.2769 4.76769 11.8949 5.00028 12.3703 5.46546L13.7014 4.16295Z" fill="#E94235"/>
</svg>
