<svg width="17" height="16" viewBox="0 0 17 16" fill="none" xmlns="http://www.w3.org/2000/svg">
<path d="M9.02021 13.2426L14.0847 8.17813C15.3291 6.93374 15.5127 4.88651 14.3351 3.57874C14.0401 3.25022 13.6813 2.98524 13.2805 2.79998C12.8798 2.61471 12.4455 2.51304 12.0041 2.50117C11.5627 2.48931 11.1236 2.56749 10.7135 2.73095C10.3033 2.8944 9.93077 3.13971 9.61856 3.45191L8.66666 4.40381L7.84479 3.58194C6.60039 2.33753 4.55317 2.15394 3.2454 3.33157C2.91688 3.62654 2.6519 3.98536 2.46663 4.38613C2.28137 4.78689 2.1797 5.2212 2.16783 5.66256C2.15596 6.10392 2.23414 6.54307 2.3976 6.95321C2.56106 7.36335 2.80637 7.73589 3.11856 8.0481L8.31311 13.2426C8.40687 13.3364 8.53405 13.3891 8.66666 13.3891C8.79927 13.3891 8.92644 13.3364 9.02021 13.2426V13.2426Z" stroke="white" stroke-linecap="round" stroke-linejoin="round"/>
</svg>
