<svg width="32" height="27" viewBox="0 0 32 27" fill="none" xmlns="http://www.w3.org/2000/svg">
<path d="M16.8034 25.606L28.5551 13.8172C31.4426 10.9206 31.8686 6.15519 29.1361 3.11107C28.4516 2.34637 27.619 1.72958 26.6891 1.29833C25.7591 0.867085 24.7513 0.630428 23.7272 0.602801C22.7031 0.575174 21.6841 0.757156 20.7324 1.13764C19.7807 1.51813 18.9163 2.08914 18.1918 2.81584L15.983 5.0316L14.0759 3.11851C11.1884 0.221891 6.43805 -0.205459 3.4035 2.53572C2.6412 3.22234 2.02635 4.05757 1.59646 4.99044C1.16657 5.92332 0.930656 6.93427 0.903116 7.96163C0.875576 8.98899 1.05699 10.0112 1.43628 10.9659C1.81557 11.9206 2.38478 12.7878 3.1092 13.5145L15.1626 25.6059C15.3802 25.8242 15.6753 25.9468 15.983 25.9468C16.2907 25.9468 16.5858 25.8242 16.8034 25.606Z" fill="white" stroke="white" stroke-linecap="round" stroke-linejoin="round"/>
</svg>
