<svg width="32" height="28" viewBox="0 0 32 28" fill="none" xmlns="http://www.w3.org/2000/svg">
<path d="M16.8662 26.5806L28.5907 14.5209C31.4716 11.5577 31.8966 6.6828 29.1703 3.56872C28.4875 2.78644 27.6568 2.15547 26.729 1.71431C25.8012 1.27315 24.7958 1.03106 23.774 1.0028C22.7523 0.974535 21.7356 1.1607 20.7861 1.54993C19.8366 1.93916 18.9742 2.5233 18.2514 3.2667L16.0477 5.53338L14.1451 3.57633C11.2642 0.613132 6.52485 0.17596 3.49732 2.98014C2.73678 3.68255 2.12335 4.53697 1.69446 5.49128C1.26556 6.44559 1.0302 7.47979 1.00272 8.53075C0.975243 9.58172 1.15623 10.6274 1.53464 11.6041C1.91306 12.5807 2.48096 13.4678 3.2037 14.2112L15.2292 26.5806C15.4463 26.8039 15.7407 26.9293 16.0477 26.9293C16.3547 26.9293 16.6491 26.8039 16.8662 26.5806Z" fill="white" stroke="#202020" stroke-linecap="round" stroke-linejoin="round"/>
</svg>
