<svg width="23" height="23" viewBox="0 0 23 23" fill="none" xmlns="http://www.w3.org/2000/svg">
<path d="M11.9858 0C5.91171 0 0.98584 4.92711 0.98584 11.0028C0.98584 17.0784 5.91171 22.0055 11.9858 22.0055C18.06 22.0055 22.9858 17.0784 22.9858 11.0028C22.9803 4.92711 18.06 0 11.9858 0ZM17.655 13.4663C17.655 15.2308 16.2183 16.6678 14.4543 16.6678H9.60611C7.84212 16.6678 6.40541 15.2308 6.40541 13.4663V8.6169C6.40541 6.85246 7.84212 5.41538 9.60611 5.41538H14.4543C16.2183 5.41538 17.655 6.85246 17.655 8.6169V13.4663Z" fill="white"/>
<path d="M14.4546 6.38086H9.60635C8.37488 6.38086 7.37085 7.38515 7.37085 8.61692V13.4664C7.37085 14.6981 8.37488 15.7024 9.60635 15.7024H14.4546C15.686 15.7024 16.6901 14.6981 16.6901 13.4664V8.61692C16.6956 7.38515 15.6916 6.38086 14.4546 6.38086ZM12.0304 13.9213C10.444 13.9213 9.15148 12.6285 9.15148 11.0416C9.15148 9.45476 10.444 8.16194 12.0304 8.16194C13.6169 8.16194 14.9094 9.45476 14.9094 11.0416C14.915 12.6285 13.6225 13.9213 12.0304 13.9213ZM15.037 8.68906C14.6543 8.68906 14.3436 8.37834 14.3436 7.99549C14.3436 7.61264 14.6543 7.30192 15.037 7.30192C15.4198 7.30192 15.7304 7.61264 15.7304 7.99549C15.7304 8.37834 15.4198 8.68906 15.037 8.68906Z" fill="white"/>
<path d="M12.0302 9.12183C10.9763 9.12183 10.1165 9.98185 10.1165 11.0361C10.1165 12.0903 10.9763 12.9503 12.0302 12.9503C13.0842 12.9503 13.944 12.0903 13.944 11.0361C13.9495 9.98185 13.0897 9.12183 12.0302 9.12183Z" fill="white"/>
</svg>
