<svg width="19" height="25" viewBox="0 0 19 25" fill="none" xmlns="http://www.w3.org/2000/svg">
<path d="M9.75 13.25C11.683 13.25 13.25 11.683 13.25 9.75C13.25 7.817 11.683 6.25 9.75 6.25C7.817 6.25 6.25 7.817 6.25 9.75C6.25 11.683 7.817 13.25 9.75 13.25Z" stroke="black" stroke-linecap="round" stroke-linejoin="round"/>
<path d="M18.5 9.75C18.5 17.625 9.75 23.75 9.75 23.75C9.75 23.75 1 17.625 1 9.75C1 7.42936 1.92187 5.20376 3.56282 3.56282C5.20376 1.92187 7.42936 1 9.75 1C12.0706 1 14.2962 1.92187 15.9372 3.56282C17.5781 5.20376 18.5 7.42936 18.5 9.75V9.75Z" stroke="black" stroke-linecap="round" stroke-linejoin="round"/>
</svg>
