<svg width="40" height="16" viewBox="0 0 40 16" fill="none" xmlns="http://www.w3.org/2000/svg">
<path d="M12.9247 14.3379C13.0968 14.3379 13.2688 14.3794 13.3979 14.5041C13.5269 14.6288 13.5699 14.7534 13.5699 14.9196V15.8753H13.2258V15.0443C13.2258 14.9196 13.1828 14.8365 13.1398 14.7534C13.0968 14.6703 12.9678 14.6703 12.8817 14.6703C12.7527 14.6703 12.6667 14.7119 12.5807 14.795C12.4946 14.8781 12.4516 14.9612 12.4516 15.0858V15.9168H12.1075V15.0858C12.1075 14.9612 12.0645 14.8781 12.0215 14.795C11.9785 14.7119 11.8495 14.7119 11.7635 14.7119C11.6774 14.7119 11.5484 14.7534 11.4624 14.8365C11.3764 14.9196 11.3333 15.0027 11.3333 15.1274V15.9584H10.9893V14.4625H11.3333V14.6287C11.4194 14.4625 11.5914 14.421 11.8065 14.421C11.9355 14.421 12.0215 14.4625 12.1075 14.5041C12.1936 14.5456 12.2796 14.6288 12.3226 14.7119C12.4516 14.421 12.6667 14.3379 12.9247 14.3379Z" fill="#E5E5E5"/>
<path d="M15.5484 15.8753H15.2043V15.7091C15.0753 15.8753 14.9033 15.9168 14.7312 15.9168C14.5162 15.9168 14.3441 15.8337 14.1721 15.7091C14.0431 15.5429 13.957 15.3351 13.957 15.1274C13.957 14.9196 14.0431 14.7119 14.1721 14.5456C14.3011 14.3794 14.5162 14.3379 14.7312 14.3379C14.9463 14.3379 15.1183 14.421 15.2043 14.5456V14.3794H15.5484V15.8753ZM14.7742 14.6287C14.6452 14.6287 14.5162 14.6703 14.4301 14.7534C14.3441 14.8781 14.3011 15.0027 14.3011 15.1274C14.3011 15.252 14.3441 15.3767 14.4301 15.4598C14.5162 15.5429 14.6452 15.5844 14.7742 15.5844C14.9033 15.5844 15.0323 15.5429 15.1183 15.4598C15.2043 15.3767 15.2474 15.252 15.2474 15.1274C15.2474 15.0027 15.2043 14.8781 15.1183 14.795C15.0323 14.7119 14.9033 14.6287 14.7742 14.6287Z" fill="#E5E5E5"/>
<path d="M17.1398 14.7534C17.0968 14.7119 17.0108 14.6703 16.9248 14.6703C16.8387 14.6288 16.7527 14.6288 16.6667 14.6288C16.5807 14.6288 16.4946 14.6288 16.4516 14.6703C16.4086 14.7119 16.3656 14.7534 16.3656 14.795C16.3656 14.8365 16.4086 14.8781 16.4516 14.9196C16.4946 14.9612 16.5377 14.9612 16.6237 14.9612L16.7957 15.0027C17.1398 15.0443 17.3549 15.2105 17.3549 15.4598C17.3549 15.626 17.3118 15.7091 17.1828 15.8338C17.0538 15.9169 16.8817 15.9584 16.6667 15.9584C16.5807 15.9584 16.4516 15.9584 16.3226 15.9169C16.1936 15.8753 16.1075 15.8338 15.9785 15.7507L16.1506 15.5014C16.2796 15.5845 16.4516 15.6676 16.6667 15.6676C16.7957 15.6676 16.8817 15.6676 16.9248 15.626C16.9678 15.5845 17.0108 15.5429 17.0108 15.5014C17.0108 15.4183 16.9248 15.3767 16.7527 15.3351H16.5807C16.4086 15.2936 16.2796 15.252 16.1936 15.1689C16.1075 15.0858 16.0645 15.0027 16.0645 14.8781C16.0645 14.7119 16.1075 14.6288 16.2366 14.5457C16.3656 14.4626 16.4946 14.421 16.7097 14.421C16.9678 14.421 17.1828 14.4626 17.3549 14.5872L17.1398 14.7534Z" fill="#E5E5E5"/>
<path d="M18.7742 14.6704H18.172V15.3352C18.172 15.4183 18.215 15.5014 18.258 15.5429C18.301 15.5845 18.3441 15.626 18.4301 15.626C18.5161 15.626 18.6451 15.5845 18.7312 15.5429L18.8602 15.7922C18.6881 15.8753 18.5591 15.9584 18.3871 15.9584C18.215 15.9584 18.086 15.9169 17.957 15.8338C17.8709 15.7507 17.8279 15.5845 17.8279 15.3767V14.7119H17.5269V14.4211H17.8279V13.964H18.172V14.4211H18.7742V14.6704Z" fill="#E5E5E5"/>
<path d="M19.8493 14.3379C20.0644 14.3379 20.2364 14.421 20.3655 14.5456C20.4945 14.7119 20.5805 14.8781 20.5805 15.1274C20.5805 15.1689 20.5805 15.2105 20.5805 15.252H19.4622C19.4622 15.3767 19.5483 15.4598 19.6343 15.5429C19.7203 15.626 19.8063 15.626 19.9354 15.626C20.1074 15.626 20.2364 15.5844 20.3655 15.4598L20.5375 15.7091C20.3655 15.8337 20.1504 15.9168 19.8924 15.9168C19.6773 15.9168 19.4623 15.8337 19.3332 15.7091C19.2042 15.5844 19.1182 15.3767 19.1182 15.1274C19.1182 14.8781 19.2042 14.7119 19.3332 14.5456C19.4623 14.421 19.6343 14.3379 19.8493 14.3379ZM19.8493 14.6287C19.7203 14.6287 19.6343 14.6703 19.5483 14.7119C19.4623 14.795 19.4192 14.8781 19.4192 15.0027H20.2364C20.2364 14.8781 20.1934 14.795 20.1074 14.7119C20.0644 14.6703 19.9784 14.6287 19.8493 14.6287Z" fill="#E5E5E5"/>
<path d="M21.8279 14.3379C21.9139 14.3379 21.9999 14.3379 22.086 14.3794L21.9999 14.7119C21.9139 14.6703 21.8279 14.6703 21.7419 14.6703C21.6129 14.6703 21.5268 14.7119 21.4838 14.795C21.3978 14.8781 21.3978 14.9612 21.3978 15.0858V15.9168H21.0537V14.421H21.3978V14.5872C21.4408 14.421 21.6129 14.3379 21.8279 14.3379Z" fill="#E5E5E5"/>
<path d="M23.1185 14.3379C23.2475 14.3379 23.3335 14.3379 23.4626 14.3794C23.5486 14.421 23.6346 14.4625 23.7206 14.5456L23.5056 14.7534C23.3765 14.6703 23.2475 14.5872 23.1185 14.5872C22.9894 14.5872 22.8604 14.6287 22.7744 14.7119C22.6884 14.795 22.6454 14.9196 22.6454 15.0443C22.6454 15.1689 22.6884 15.2936 22.7744 15.3767C22.8604 15.4598 22.9894 15.5013 23.1185 15.5013C23.2475 15.5013 23.3765 15.4598 23.5056 15.3351L23.7206 15.5429C23.5916 15.7091 23.3765 15.7922 23.1185 15.7922C22.8604 15.7922 22.6884 15.7091 22.5163 15.5844C22.3443 15.4182 22.3013 15.252 22.3013 15.0027C22.3013 14.795 22.3873 14.5872 22.5163 14.421C22.6884 14.421 22.8604 14.3379 23.1185 14.3379Z" fill="#E5E5E5"/>
<path d="M25.5699 15.8753H25.2258V15.7091C25.0968 15.8753 24.9248 15.9168 24.7527 15.9168C24.5377 15.9168 24.3656 15.8337 24.1936 15.7091C24.0645 15.5429 23.9785 15.3767 23.9785 15.1274C23.9785 14.9196 24.0645 14.7119 24.1936 14.5456C24.3226 14.3794 24.5377 14.3379 24.7527 14.3379C24.9678 14.3379 25.1398 14.421 25.2258 14.5456V14.3794H25.5699V15.8753ZM24.7957 14.6287C24.6667 14.6287 24.5377 14.6703 24.4516 14.7534C24.3656 14.8365 24.3226 14.9612 24.3226 15.0858C24.3226 15.2105 24.3656 15.3351 24.4516 15.4182C24.5377 15.5013 24.6667 15.5429 24.7957 15.5429C24.9248 15.5429 25.0538 15.5013 25.1398 15.4182C25.2258 15.3351 25.2688 15.2105 25.2688 15.0858C25.2688 14.9612 25.2258 14.8365 25.1398 14.7534C25.0538 14.7119 24.9248 14.6287 24.7957 14.6287Z" fill="#E5E5E5"/>
<path d="M26.9031 14.3379C26.9891 14.3379 27.0751 14.3379 27.1612 14.3794L27.0751 14.7119C26.9891 14.6703 26.9031 14.6703 26.8171 14.6703C26.688 14.6703 26.602 14.7119 26.559 14.795C26.473 14.8781 26.473 14.9612 26.473 15.0858V15.9168H26.1289V14.421H26.473V14.5872C26.559 14.421 26.688 14.3379 26.9031 14.3379Z" fill="#E5E5E5"/>
<path d="M28.1507 14.3379C28.3657 14.3379 28.5378 14.421 28.6238 14.5456V13.59H28.9679V15.8337H28.6238V15.6675C28.4947 15.8337 28.3227 15.8753 28.1507 15.8753C27.9356 15.8753 27.7636 15.7922 27.5915 15.6675C27.4625 15.5013 27.3765 15.3351 27.3765 15.0858C27.3765 14.8781 27.4625 14.6703 27.5915 14.5041C27.7636 14.421 27.9356 14.3379 28.1507 14.3379ZM28.1937 14.6287C28.0646 14.6287 27.9356 14.6703 27.8496 14.7534C27.7636 14.8365 27.7206 14.9612 27.7206 15.0858C27.7206 15.2105 27.7636 15.3351 27.8496 15.4182C27.9356 15.5013 28.0646 15.5429 28.1937 15.5429C28.3227 15.5429 28.4517 15.5013 28.5378 15.4182C28.6238 15.3351 28.6668 15.2105 28.6668 15.0858C28.6668 14.9612 28.6238 14.8365 28.5378 14.7534C28.4517 14.7118 28.3227 14.6287 28.1937 14.6287Z" fill="#E5E5E5"/>
<path d="M29.7417 15.7505H29.7848C29.7848 15.7505 29.7848 15.7505 29.7848 15.7921V15.8336H29.7417L29.7848 15.8752L29.7417 15.8336V15.8752H29.6987V15.709H29.7417V15.7505ZM29.6987 15.7921C29.7417 15.8336 29.7417 15.8336 29.7848 15.8336C29.7848 15.7921 29.7417 15.7921 29.6987 15.7921Z" fill="#E5E5E5"/>
<path d="M29.7419 15.6675C29.6558 15.6675 29.5698 15.7506 29.5698 15.8337C29.5698 15.9168 29.6558 15.9999 29.7419 15.9999C29.8279 15.9999 29.9139 15.9168 29.9139 15.8337C29.9139 15.7506 29.8279 15.6675 29.7419 15.6675ZM29.7419 15.9583C29.6558 15.9583 29.6128 15.9168 29.6128 15.8337C29.6128 15.7506 29.6558 15.709 29.7419 15.709C29.8279 15.709 29.8709 15.7506 29.8709 15.8337C29.8709 15.9168 29.8279 15.9583 29.7419 15.9583Z" fill="#E5E5E5"/>
<path d="M17.6129 6.98338C17.6129 5.07202 18.5591 3.32687 20.0215 2.24654C18.9892 1.45706 17.6559 1 16.2366 1C12.7957 1 10 3.70083 10 6.98338C10 10.3075 12.7957 12.9668 16.1935 12.9668C17.6129 12.9668 18.9462 12.5097 19.9785 11.7202C18.5161 10.6399 17.6129 8.89474 17.6129 6.98338Z" fill="#EB001B"/>
<path d="M23.8064 1C22.3871 1 21.0537 1.45706 20.0215 2.24654C21.4838 3.32687 22.4301 5.07202 22.4301 6.98338C22.4301 8.89474 21.4838 10.6399 20.0215 11.7202C21.0537 12.5097 22.3871 12.9668 23.8064 12.9668C27.2473 12.9668 30 10.2659 30 6.98338C30 3.70083 27.2043 1 23.8064 1Z" fill="#F79F1B"/>
<path d="M19.9784 11.7203C21.3087 11.7203 22.387 9.59951 22.387 6.98342C22.387 4.36734 21.3087 2.24658 19.9784 2.24658C18.6482 2.24658 17.5698 4.36734 17.5698 6.98342C17.5698 9.59951 18.6482 11.7203 19.9784 11.7203Z" fill="#FF6002"/>
<path d="M29.6989 9.93347H29.6129V10.1412H29.5699V9.97502H29.4839V9.93347H29.6989Z" fill="#F79F1B"/>
<path d="M30.0003 10.1412L29.9572 9.97502L29.8712 10.1412H29.8282L29.7852 9.93347V10.1412H29.7422V9.93347H29.7852L29.8712 10.0997L29.9572 9.93347H30.0003V10.1412Z" fill="#F79F1B"/>
</svg>
