<svg width="40" height="16" viewBox="0 0 40 16" fill="none" xmlns="http://www.w3.org/2000/svg">
<path fill-rule="evenodd" clip-rule="evenodd" d="M9.375 4H7.16667C7.04167 4 6.91667 4.13408 6.875 4.26816L6 10.257C6 10.3911 6.08333 10.4804 6.16667 10.4804H7.20833C7.375 10.4804 7.5 10.3464 7.5 10.2123L7.75 8.60335C7.75 8.42458 7.91667 8.3352 8.04167 8.3352H8.70833C10.125 8.3352 10.9583 7.57542 11.1667 6.10056C11.4167 4.75978 10.7917 4 9.375 4ZM9.625 6.18994C9.5 7.03911 8.91667 7.03911 8.33333 7.03911H8L8.20833 5.47486C8.20833 5.38547 8.29167 5.29609 8.375 5.29609H8.54167C9.16667 5.29609 9.75 5.29609 9.625 6.18994Z" fill="#E5E5E5"/>
<path fill-rule="evenodd" clip-rule="evenodd" d="M15.875 6.14519H14.8333C14.75 6.14519 14.6667 6.23457 14.6667 6.32396L14.625 6.63681L14.5417 6.50273C14.3333 6.14519 13.8333 6.01111 13.2917 6.01111C12.1667 6.01111 11.1667 6.94966 10.9583 8.29044C10.7917 9.31837 11.2083 10.5698 12.6667 10.5698C13.5833 10.5698 14.125 9.94407 14.125 9.94407L14.0833 10.2569C14.0833 10.391 14.1667 10.4804 14.25 10.4804H15.1667C15.3333 10.4804 15.4583 10.3463 15.4583 10.2122L16.0417 6.36865C16.0833 6.27926 15.9583 6.14519 15.875 6.14519ZM14.4167 8.33513C14.3333 8.96083 13.8333 9.40776 13.25 9.40776C12.625 9.40776 12.2917 8.91614 12.375 8.33513C12.4583 7.70943 12.9583 7.26251 13.5417 7.26251C14.1667 7.26251 14.5 7.70943 14.4167 8.33513Z" fill="#E5E5E5"/>
<path fill-rule="evenodd" clip-rule="evenodd" d="M21.4167 6.14526H20.375C20.2917 6.14526 20.1667 6.18996 20.125 6.27934L18.6667 8.55867L18.0834 6.36873C18.0417 6.23465 17.9167 6.14526 17.7917 6.14526H16.75C16.625 6.14526 16.5417 6.27934 16.5834 6.41342L17.75 10.0335L16.6667 11.6872C16.5834 11.8212 16.6667 12 16.8334 12H17.875C17.9584 12 18.0834 11.9553 18.125 11.8659L21.625 6.45811C21.6667 6.32403 21.5834 6.14526 21.4167 6.14526Z" fill="#E5E5E5"/>
<path fill-rule="evenodd" clip-rule="evenodd" d="M24.875 4H22.7083C22.5417 4 22.4167 4.13408 22.4167 4.26816L21.5 10.257C21.5 10.3911 21.5833 10.4804 21.6667 10.4804H22.7083C22.875 10.4804 23 10.3464 23 10.2123L23.25 8.60335C23.25 8.42458 23.4167 8.3352 23.5417 8.3352H24.2083C25.625 8.3352 26.4583 7.57542 26.6667 6.10056C26.9583 4.75978 26.3333 4 24.875 4ZM25.125 6.18994C25 7.03911 24.4167 7.03911 23.8333 7.03911H23.5L23.7083 5.47486C23.7083 5.38547 23.7917 5.29609 23.875 5.29609H24.0417C24.6667 5.29609 25.25 5.29609 25.125 6.18994Z" fill="#E5E5E5"/>
<path fill-rule="evenodd" clip-rule="evenodd" d="M31.375 6.14519H30.3333C30.25 6.14519 30.1667 6.23457 30.1667 6.32396L30.125 6.63681L30.0417 6.50273C29.8333 6.14519 29.3333 6.01111 28.7917 6.01111C27.6667 6.01111 26.6667 6.94966 26.4583 8.29044C26.2917 9.31837 26.7083 10.5698 28.1667 10.5698C29.0833 10.5698 29.625 9.94407 29.625 9.94407L29.5833 10.2569C29.5833 10.391 29.6667 10.4804 29.75 10.4804H30.6667C30.8333 10.4804 30.9583 10.3463 30.9583 10.2122L31.5417 6.36865C31.5833 6.27926 31.5 6.14519 31.375 6.14519ZM29.9167 8.33513C29.8333 8.96083 29.3333 9.40776 28.75 9.40776C28.125 9.40776 27.7917 8.91614 27.875 8.33513C27.9583 7.70943 28.4583 7.26251 29.0417 7.26251C29.6667 7.26251 30 7.70943 29.9167 8.33513Z" fill="#E5E5E5"/>
<path fill-rule="evenodd" clip-rule="evenodd" d="M32.625 4.17877L31.7083 10.257C31.7083 10.3911 31.7916 10.4804 31.8749 10.4804H32.75C32.9166 10.4804 33.0416 10.3464 33.0416 10.2123L33.9166 4.22346C34 4.08939 33.9166 4 33.7916 4H32.7916C32.7083 4 32.625 4.08939 32.625 4.17877Z" fill="#E5E5E5"/>
</svg>
