<svg width="20" height="19" viewBox="0 0 20 19" fill="none" xmlns="http://www.w3.org/2000/svg">
<g clip-path="url(#clip0)">
<path d="M10.4722 19C7.93519 19 5.54927 18.0118 3.75483 16.2173C1.96039 14.4229 0.972168 12.037 0.972168 9.5C0.972168 6.96303 1.96039 4.57711 3.75483 2.78266C5.54927 0.988218 7.93519 0 10.4722 0C13.0091 0 15.3951 0.988218 17.1895 2.78266C18.9839 4.57711 19.9722 6.96303 19.9722 9.5C19.9722 12.037 18.9839 14.4229 17.1895 16.2173C15.3951 18.0118 13.0091 19 10.4722 19ZM10.4722 0.822605C5.68759 0.822605 1.79477 4.71542 1.79477 9.5C1.79477 14.2846 5.68759 18.1774 10.4722 18.1774C15.2567 18.1774 19.1496 14.2846 19.1496 9.5C19.1496 4.71542 15.2567 0.822605 10.4722 0.822605Z" fill="black"/>
<path d="M10.4722 15.3638C10.2447 15.3638 10.0609 15.18 10.0609 14.9525V13.5457H8.65406C8.42657 13.5457 8.24275 13.3619 8.24275 13.1344C8.24275 12.9069 8.42657 12.7231 8.65406 12.7231H11.0782C11.8535 12.7231 12.485 12.0916 12.485 11.3163C12.485 10.541 11.8535 9.90948 11.0782 9.90948H9.86613C8.63768 9.90948 7.63672 8.91035 7.63672 7.68008C7.63672 6.45163 8.63586 5.45067 9.86613 5.45067H10.0609V4.04387C10.0609 3.81638 10.2447 3.63257 10.4722 3.63257C10.6997 3.63257 10.8835 3.81638 10.8835 4.04387V5.45067H12.2903C12.5178 5.45067 12.7016 5.63448 12.7016 5.86197C12.7016 6.08947 12.5178 6.27328 12.2903 6.27328H9.86613C9.09084 6.27328 8.45932 6.90479 8.45932 7.68008C8.45932 8.45537 9.09084 9.08688 9.86613 9.08688H11.0782C12.3066 9.08688 13.3076 10.086 13.3076 11.3163C13.3076 12.5466 12.3085 13.5457 11.0782 13.5457H10.8835V14.9525C10.8835 15.18 10.6978 15.3638 10.4722 15.3638Z" fill="black"/>
</g>
<defs>
<clipPath id="clip0">
<rect width="19" height="19" fill="white" transform="translate(0.972168)"/>
</clipPath>
</defs>
</svg>
