<svg width="32" height="33" viewBox="0 0 32 33" fill="none" xmlns="http://www.w3.org/2000/svg">
<path d="M16 28.3638C22.6274 28.3638 28 22.9912 28 16.3638C28 9.73635 22.6274 4.36377 16 4.36377C9.37258 4.36377 4 9.73635 4 16.3638C4 22.9912 9.37258 28.3638 16 28.3638Z" stroke="#9A9A9A" stroke-linecap="round" stroke-linejoin="round"/>
<path d="M16 24.3638C16.8284 24.3638 17.5 23.6922 17.5 22.8638C17.5 22.0353 16.8284 21.3638 16 21.3638C15.1716 21.3638 14.5 22.0353 14.5 22.8638C14.5 23.6922 15.1716 24.3638 16 24.3638Z" fill="#9A9A9A"/>
<path d="M16 19.3638V18.3638C16.7911 18.3638 17.5645 18.1292 18.2223 17.6897C18.8801 17.2501 19.3928 16.6254 19.6955 15.8945C19.9983 15.1636 20.0775 14.3593 19.9231 13.5834C19.7688 12.8075 19.3878 12.0948 18.8284 11.5353C18.269 10.9759 17.5563 10.595 16.7804 10.4406C16.0044 10.2863 15.2002 10.3655 14.4693 10.6683C13.7384 10.971 13.1136 11.4837 12.6741 12.1415C12.2346 12.7993 12 13.5726 12 14.3638" stroke="#9A9A9A" stroke-linecap="round" stroke-linejoin="round"/>
</svg>
