<svg width="80" height="62" viewBox="0 0 80 62" fill="none" xmlns="http://www.w3.org/2000/svg">
<path d="M44.2464 0H80V31.2668C80 36.4957 79.0564 40.7642 77.2739 44.2857C75.3866 47.7005 73.0799 50.5818 70.1442 52.8227C67.2084 55.0637 63.9581 56.8778 60.3932 58.2651C56.8283 59.6523 53.2634 60.8262 49.6986 62L44.4561 52.2892C47.0773 51.222 49.384 50.2616 51.2713 49.1945C53.1586 48.1274 54.7313 46.9535 55.8847 45.7797C57.038 44.4991 57.9817 43.1119 58.5059 41.5112C59.0301 39.9105 59.3447 37.9897 59.3447 35.8554H44.2464V0ZM0 0H35.6488V31.2668C35.6488 36.4957 34.7051 40.7642 32.9227 44.2857C31.0354 47.7005 28.7287 50.5818 25.7929 52.8227C22.8571 55.0637 19.6068 56.8778 16.0419 58.2651C12.4771 59.6523 8.91219 60.8262 5.34731 62L0.104849 52.2892C2.72608 51.222 5.03277 50.1549 6.92005 49.0878C8.80734 48.0207 10.3801 46.8468 11.5334 45.673C12.6868 44.3924 13.6304 43.0052 14.1547 41.4045C14.6789 39.8038 14.9934 37.883 14.9934 35.7487H0V0Z" fill="#DADADA"/>
</svg>
