<svg width="21" height="20" viewBox="0 0 21 20" fill="none" xmlns="http://www.w3.org/2000/svg">
<path d="M20.7826 7.33829L16.8985 4.70193C16.8454 4.66474 16.7835 4.63994 16.7171 4.62755L13.2134 3.97052L11.4395 3.4168V2.77217C12.1606 2.5573 12.603 1.88374 12.4702 1.17713C12.3331 0.445728 11.6341 -0.0625363 10.8423 0.00357936C10.0504 0.0655628 9.44879 0.677133 9.45321 1.42093C9.45321 1.6606 9.66113 1.85482 9.91771 1.85482C10.1743 1.85482 10.3822 1.6606 10.3822 1.42093C10.3822 1.11515 10.6476 0.863083 10.9794 0.863083C11.3112 0.863083 11.5766 1.11102 11.5766 1.42093C11.5766 1.73085 11.3112 1.97879 10.9794 1.97879C10.7228 1.97879 10.5149 2.173 10.5149 2.41267V3.42093L8.74098 3.97465L5.2329 4.62755C5.17539 4.63994 5.1223 4.65647 5.07364 4.6854L1.18954 6.99532C1.08337 7.0573 1.01259 7.15234 0.986048 7.26804C0.959505 7.37961 0.981624 7.49532 1.04798 7.59449L3.52089 11.2226C3.59609 11.33 3.71554 11.4003 3.85267 11.4168C3.98981 11.4333 4.12695 11.392 4.22427 11.3094L4.8613 10.768V19.5656C4.8613 19.8052 5.06922 19.9994 5.3258 19.9994H16.6286C16.8852 19.9994 17.0931 19.8052 17.0931 19.5656V10.8218L17.7478 11.3218C17.8496 11.4003 17.9779 11.4333 18.1062 11.4168C18.2345 11.4003 18.3495 11.3342 18.4247 11.235L20.8976 7.93746C21.0347 7.74738 20.9861 7.47879 20.7826 7.33829ZM10.975 5.93746C10.1876 5.93746 9.5063 5.40854 9.36031 4.69366L10.975 4.18953L12.5897 4.69366C12.4437 5.40854 11.7624 5.93746 10.975 5.93746ZM5.5116 9.39201C5.34349 9.32176 5.14885 9.35069 5.01171 9.46639L4.00751 10.3218L2.07873 7.49531L5.49833 5.46226L8.44901 4.91267C8.70559 6.01598 9.7496 6.80936 10.9706 6.80936C12.1915 6.80936 13.2356 6.02011 13.4921 4.91267L16.4295 5.46226L19.8668 7.79697L17.9425 10.3631L16.9162 9.57796C16.779 9.47052 16.5844 9.44986 16.4251 9.52011C16.2659 9.59036 16.1597 9.74738 16.1597 9.91267V19.1317H5.78588V9.7887C5.78588 9.61928 5.6797 9.46226 5.5116 9.39201Z" fill="black"/>
</svg>
