<svg width="40" height="16" viewBox="0 0 40 16" fill="none" xmlns="http://www.w3.org/2000/svg">
<path d="M30.3859 4.10522H28.8772C28.421 4.10522 28.0701 4.24556 27.8596 4.70164L24.9824 11.2622H27.0175C27.0175 11.2622 27.3684 10.3851 27.4386 10.1746C27.6491 10.1746 29.6491 10.1746 29.9298 10.1746C30 10.4202 30.1754 11.2271 30.1754 11.2271H32L30.3859 4.10522ZM28 8.70111C28.1754 8.28011 28.7719 6.70137 28.7719 6.70137C28.7719 6.73645 28.9473 6.28037 29.0175 6.03479L29.1579 6.66629C29.1579 6.66629 29.5438 8.38536 29.614 8.73619H28V8.70111Z" fill="#E5E5E5"/>
<path d="M25.1227 8.91163C25.1227 10.3851 23.7894 11.3674 21.7192 11.3674C20.842 11.3674 19.9999 11.192 19.5437 10.9815L19.8244 9.3677L20.0701 9.47295C20.7016 9.75362 21.1227 9.85887 21.8946 9.85887C22.456 9.85887 23.0525 9.64837 23.0525 9.15721C23.0525 8.84146 22.8069 8.63096 22.035 8.28013C21.2981 7.9293 20.3157 7.36797 20.3157 6.35056C20.3157 4.94724 21.6841 4 23.6139 4C24.3508 4 24.9823 4.14033 25.3683 4.31575L25.0876 5.8594L24.9473 5.71907C24.5964 5.57874 24.1402 5.4384 23.4736 5.4384C22.7367 5.47349 22.3859 5.78923 22.3859 6.0699C22.3859 6.38565 22.8069 6.63123 23.4736 6.94697C24.5964 7.47322 25.1227 8.06963 25.1227 8.91163Z" fill="#E5E5E5"/>
<path d="M8 4.17537L8.03509 4.03503H11.0526C11.4737 4.03503 11.7895 4.17537 11.8947 4.63145L12.5614 7.78892C11.8947 6.10493 10.3509 4.7367 8 4.17537Z" fill="#E5E5E5"/>
<path d="M16.8069 4.10527L13.7542 11.2271H11.6841L9.92969 5.26301C11.1928 6.06992 12.2455 7.33291 12.6314 8.20999L12.842 8.94673L14.7367 4.07019H16.8069V4.10527Z" fill="#E5E5E5"/>
<path d="M17.614 4.07019H19.5438L18.3158 11.2271H16.3859L17.614 4.07019Z" fill="#E5E5E5"/>
</svg>
