<svg width="22" height="23" viewBox="0 0 22 23" fill="none" xmlns="http://www.w3.org/2000/svg">
<path d="M11 0C4.92587 0 0 4.92711 0 11.0028C0 17.0784 4.92587 22.0055 11 22.0055C17.0741 22.0055 22 17.0784 22 11.0028C21.9945 4.92711 17.0686 0 11 0ZM17.3959 15.1364H15.8704C15.2879 15.1364 15.1215 14.6759 14.0842 13.6383C13.18 12.7672 12.7917 12.6562 12.5698 12.6562C12.2648 12.6562 12.1704 12.745 12.1704 13.1778V14.5427C12.1704 14.92 12.0484 15.1364 11.0832 15.1364C9.46899 15.1364 7.69945 14.1543 6.44024 12.3511C4.55421 9.70441 4.03833 7.70139 4.03833 7.30189C4.03833 7.0744 4.12708 6.8691 4.55976 6.8691H6.08522C6.47353 6.8691 6.6233 7.04111 6.76752 7.4628C7.51084 9.63228 8.77005 11.5299 9.28593 11.5299C9.48008 11.5299 9.56884 11.4411 9.56884 10.9473V8.70567C9.51336 7.67364 8.9642 7.59042 8.9642 7.21866C8.9642 7.04666 9.10842 6.8691 9.3525 6.8691H11.7433C12.0651 6.8691 12.176 7.04111 12.176 7.42951V10.4479C12.176 10.7697 12.3147 10.8863 12.4145 10.8863C12.6087 10.8863 12.7695 10.7753 13.1246 10.4202C14.2229 9.19395 14.9939 7.30744 14.9939 7.30744C15.0883 7.07995 15.2713 6.87465 15.6541 6.87465H17.1795C17.6399 6.87465 17.7342 7.11324 17.6399 7.43506C17.4458 8.32282 15.593 10.9362 15.593 10.9362C15.4322 11.197 15.3656 11.3246 15.593 11.6131C15.7539 11.8406 16.2864 12.29 16.6415 12.7117C17.296 13.4497 17.7897 14.0711 17.9284 14.4984C18.0449 14.9145 17.8285 15.1364 17.3959 15.1364Z" fill="white"/>
</svg>
