<svg width="24" height="24" viewBox="0 0 24 24" fill="none" xmlns="http://www.w3.org/2000/svg">
<g clip-path="url(#clip0)">
<path d="M22.9107 12.0994V8.72412C22.9107 7.57858 22.0209 6.64784 20.9009 6.5609L17.766 1.08892C17.4745 0.582639 17.0091 0.219545 16.4466 0.0712391C15.8892 -0.0770668 15.3062 -0.000356842 14.805 0.291141L4.07074 6.54556H2.18368C0.976773 6.54556 0 7.52233 0 8.72923V21.8211C0 23.0228 0.976773 24.0047 2.18368 24.0047H20.7321C21.9339 24.0047 22.9158 23.028 22.9158 21.8211V18.4458C23.5499 18.2208 24.0051 17.6225 24.0051 16.9116V13.6387C24 12.9278 23.5448 12.3295 22.9107 12.0994ZM19.6326 6.54556H14.8766L18.4411 4.46927L19.6326 6.54556ZM17.9041 3.52319L12.7134 6.54556H10.5604L17.3671 2.58221L17.9041 3.52319ZM15.3573 1.23723C15.6028 1.09404 15.8943 1.05313 16.1653 1.12984C16.4415 1.20655 16.6767 1.38554 16.8199 1.63612L8.38695 6.54556H6.23396L15.3573 1.23723ZM21.8214 21.8211C21.8214 22.4245 21.3305 22.9103 20.7321 22.9103H2.18368C1.58022 22.9103 1.09439 22.4194 1.09439 21.8211V8.72923C1.09439 8.12578 1.58534 7.63995 2.18368 7.63995H20.7321C21.3356 7.63995 21.8214 8.13089 21.8214 8.72923V12.0022H18.5485C16.7432 12.0022 15.2755 13.4699 15.2755 15.2751C15.2755 17.0804 16.7432 18.5481 18.5485 18.5481H21.8214V21.8211ZM22.9107 16.9116C22.9107 17.2134 22.6652 17.4588 22.3635 17.4588H18.5433C17.3416 17.4588 16.3597 16.482 16.3597 15.2751C16.3597 14.0734 17.3364 13.0915 18.5433 13.0915H22.3635C22.6652 13.0915 22.9107 13.3369 22.9107 13.6387V16.9116Z" fill="black"/>
<path d="M18.5488 14.1812C17.9453 14.1812 17.4595 14.6721 17.4595 15.2704C17.4595 15.8688 17.9504 16.3597 18.5488 16.3597C19.1471 16.3597 19.638 15.8688 19.638 15.2704C19.638 14.6721 19.1471 14.1812 18.5488 14.1812Z" fill="black"/>
</g>
<defs>
<clipPath id="clip0">
<rect width="24" height="24" fill="white"/>
</clipPath>
</defs>
</svg>
